<svg xmlns="http://www.w3.org/2000/svg" viewBox="0 0 254.3 253.28"><defs><style>.cls-1,.cls-2{fill:#bfd84b;}.cls-1{opacity:0.5;}.cls-3{fill:#819c3c;}.cls-4{fill:#434d22;}.cls-5,.cls-6{fill:#809b3c;}.cls-6{font-size:14.51px;font-family:SegoeUI-Bold, Segoe UI;font-weight:700;}</style></defs><g id="Layer_3" data-name="Layer 3"><circle class="cls-1" cx="127.8" cy="126.97" r="123.5"/><circle class="cls-2" cx="127.8" cy="126.97" r="104.64"/><g id="Layer_2-2" data-name="Layer 2"><g id="Layer_1-2" data-name="Layer 1-2"><path class="cls-3" d="M78,157.24a15.45,15.45,0,1,1,15.09-15.45A15.28,15.28,0,0,1,78,157.24Zm0-28a12.54,12.54,0,1,0,12.24,12.54h0A12.41,12.41,0,0,0,78,129.25Z"/><path class="cls-3" d="M120.88,157.24A15.45,15.45,0,1,1,136,141.79,15.27,15.27,0,0,1,120.88,157.24Zm0-28a12.54,12.54,0,1,0,12.24,12.54h0a12.42,12.42,0,0,0-12.24-12.54Z"/><path class="cls-3" d="M120.88,143.24a1.44,1.44,0,0,1-1.37-1l-8-27.18a1.47,1.47,0,0,1,.9-1.84,1.42,1.42,0,0,1,1.8.92l0,.09,8,27.17a1.46,1.46,0,0,1-1,1.81,1.4,1.4,0,0,1-.41.06Z"/><path class="cls-3" d="M108.29,116.81a1.46,1.46,0,0,1-.21-2.9l4.6-.73a1.42,1.42,0,0,1,1.63,1.19,1.45,1.45,0,0,1-1.16,1.68h0l-4.6.74Z"/><path class="cls-3" d="M100.79,121.49,94,120v-7.6l7.48,4.11a2.58,2.58,0,0,0,3.52-1.09h0a2.7,2.7,0,0,0-1.06-3.61L94,106.4h0l-.37-.2L92,105.29l-.07,0-2.12-1.16A4.48,4.48,0,0,0,83.14,108v10.51A8.82,8.82,0,0,0,90,127.19L98.54,129l-2.76,13.55a3.06,3.06,0,0,0,2.34,3.61,3,3,0,0,0,3.52-2.36l2.75-13.55h0l.49-2.39v0l.1-.5h0A5.39,5.39,0,0,0,100.79,121.49Z"/><ellipse class="cls-3" cx="89.74" cy="96.93" rx="5.01" ry="5.13"/></g></g><g id="Layer_2-3" data-name="Layer 2"><g id="Layer_1-2-2" data-name="Layer 1-2"><ellipse class="cls-4" cx="157.29" cy="97.82" rx="5.1" ry="5.22"/><path class="cls-4" d="M169.55,123l-8.44-15a6,6,0,0,0-4.06-3.34,5.94,5.94,0,0,0-7,4.71v0l-3.72,18.32h0l-5.06,24.93a3.5,3.5,0,0,0,2.31,4.09,3.33,3.33,0,0,0,4.11-2.36c0-.07,0-.15,0-.22l3.76-18.54a1,1,0,0,1,1.19-.8,1,1,0,0,1,.59.38l3.43,4.63v13.53a3.45,3.45,0,0,0,2.8,3.46,3.34,3.34,0,0,0,3.8-2.84,4.38,4.38,0,0,0,0-.52V138.41h0a2.82,2.82,0,0,0-.55-1.58l-4.92-6.63,2.4-11.82,4.33,7.67a2.86,2.86,0,0,0,4,1.08l.31-.22A3.07,3.07,0,0,0,169.55,123Z"/><path class="cls-4" d="M144.11,126.8l3.1-15.27-7.15,11.85a2.76,2.76,0,0,0,.86,3.74,2.6,2.6,0,0,0,3.19-.32Z"/></g></g><g id="Layer_2-4" data-name="Layer 2"><g id="Layer_1-2-3" data-name="Layer 1-2"><ellipse class="cls-5" cx="177.63" cy="122.05" rx="3.04" ry="3.11"/><path class="cls-5" d="M184.93,137.05l-5-8.92a3.59,3.59,0,0,0-2.42-2,3.53,3.53,0,0,0-4.17,2.8v0l-2.22,10.91h0l-3,14.85a2.08,2.08,0,0,0,1.38,2.43,2,2,0,0,0,2.44-1.4.7.7,0,0,0,0-.14l2.25-11a.59.59,0,0,1,.7-.47.61.61,0,0,1,.36.23l2,2.75v8.06a2.06,2.06,0,0,0,1.66,2.06,2,2,0,0,0,2.27-1.69c0-.1,0-.21,0-.31v-9h0a1.6,1.6,0,0,0-.33-.94L178,141.34l1.43-7,2.57,4.57a1.71,1.71,0,0,0,2.36.64l.19-.13A1.84,1.84,0,0,0,184.93,137.05Z"/><path class="cls-5" d="M169.78,139.31l1.85-9.09-4.26,7.06a1.63,1.63,0,0,0,.51,2.22,1.54,1.54,0,0,0,1.9-.19Z"/></g></g><text class="cls-6" transform="matrix(0.04, -1, 1, 0.04, 22.29, 127.89)">A</text><text class="cls-6" transform="translate(22.67 118.1) rotate(-82.74)">C</text><text class="cls-6" transform="translate(23.79 109.33) rotate(-78.03)">T</text><text class="cls-6" transform="translate(25.58 101.18) rotate(-74.52)">I</text><text class="cls-6" transform="matrix(0.33, -0.94, 0.94, 0.33, 26.68, 96.84)">V</text><text class="cls-6" transform="translate(29.84 87.92) rotate(-66.05)">E</text><text class="cls-6" transform="matrix(0.46, -0.89, 0.89, 0.46, 32.98, 80.99)"> </text><text class="cls-6" transform="matrix(0.51, -0.86, 0.86, 0.51, 34.67, 77.53)">T</text><text class="cls-6" transform="matrix(0.58, -0.82, 0.82, 0.58, 38.86, 70.33)">R</text><text class="cls-6" transform="matrix(0.65, -0.76, 0.76, 0.65, 44.16, 62.76)">A</text><text class="cls-6" transform="matrix(0.72, -0.69, 0.69, 0.72, 50.59, 55.13)">N</text><text class="cls-6" transform="translate(58.76 47.38) rotate(-38.58)">S</text><text class="cls-6" transform="translate(64.95 42.41) rotate(-34.01)">P</text><text class="cls-6" transform="translate(72.15 37.49) rotate(-28.64)">O</text><text class="cls-6" transform="matrix(0.92, -0.39, 0.39, 0.92, 81.6, 32.35)">R</text><text class="cls-6" transform="translate(89.88 28.81) rotate(-18.48)">T</text><text class="cls-6" transform="translate(96.78 26.42) rotate(-14.07)">A</text><text class="cls-6" transform="translate(105.53 24.22) rotate(-9.68)">T</text><text class="cls-6" transform="matrix(0.99, -0.11, 0.11, 0.99, 113.78, 22.87)">I</text><text class="cls-6" transform="translate(118.18 22.26) rotate(-2.04)">O</text><text class="cls-6" transform="translate(128.93 21.85) rotate(4)">N</text><text class="cls-6" transform="translate(140.19 22.77) rotate(8.17)"> </text><text class="cls-6" transform="matrix(0.98, 0.2, -0.2, 0.98, 144.03, 23.24)">P</text><text class="cls-6" transform="translate(152.58 25.03) rotate(16.03)">L</text><text class="cls-6" transform="translate(159.82 27.05) rotate(20.89)">A</text><text class="cls-6" transform="matrix(0.89, 0.45, -0.45, 0.89, 169.16, 30.57)">N</text></g></svg>