<svg xmlns="http://www.w3.org/2000/svg" viewBox="0 0 254.3 253.28"><defs><style>.cls-1,.cls-2{fill:#16b795;}.cls-1{opacity:0.5;}.cls-3,.cls-5{fill:#007556;}.cls-4{fill:#00452e;}.cls-5{font-size:14.51px;font-family:SegoeUI-Bold, Segoe UI;font-weight:700;}</style></defs><g id="Layer_3" data-name="Layer 3"><circle class="cls-1" cx="127.15" cy="127.54" r="123.5"/><circle class="cls-2" cx="127.15" cy="127.54" r="104.47"/><g id="Layer_2-2" data-name="Layer 2"><g id="Layer_1-2" data-name="Layer 1-2"><ellipse class="cls-3" cx="103.69" cy="123" rx="2.19" ry="2.25"/><path class="cls-3" d="M109,133.83l-3.63-6.43a2.5,2.5,0,0,0-4.76.59h0L99,135.88h0L96.79,146.6a1.51,1.51,0,0,0,1,1.76,1.42,1.42,0,0,0,1.76-1l0-.1,1.61-8a.44.44,0,0,1,.51-.34.39.39,0,0,1,.26.17l1.48,2v5.82a1.47,1.47,0,0,0,1.2,1.48,1.43,1.43,0,0,0,1.63-1.22,1.5,1.5,0,0,0,0-.22v-6.49h0a1.22,1.22,0,0,0-.24-.68l-2.11-2.85,1-5.08,1.86,3.3a1.24,1.24,0,0,0,1.71.46l.13-.09A1.33,1.33,0,0,0,109,133.83Z"/><path class="cls-3" d="M98,135.47l1.33-6.57L96.28,134a1.18,1.18,0,0,0,.37,1.61,1.12,1.12,0,0,0,1.37-.14Z"/></g></g><g id="Layer_2-3" data-name="Layer 2"><g id="Layer_1-2-2" data-name="Layer 1-2"><ellipse class="cls-3" cx="109.76" cy="123" rx="2.19" ry="2.25"/><path class="cls-3" d="M115,133.83l-3.63-6.43a2.5,2.5,0,0,0-4.76.59h0l-1.6,7.88h0l-2.17,10.72a1.5,1.5,0,0,0,1,1.76,1.44,1.44,0,0,0,1.77-1,.3.3,0,0,1,0-.1l1.62-8a.43.43,0,0,1,.51-.34.39.39,0,0,1,.25.17l1.48,2v5.82a1.47,1.47,0,0,0,1.2,1.48,1.44,1.44,0,0,0,1.64-1.22,1.55,1.55,0,0,0,0-.22v-6.49h0a1.21,1.21,0,0,0-.23-.68L110,136.93l1-5.08,1.86,3.3a1.24,1.24,0,0,0,1.71.46l.13-.09A1.33,1.33,0,0,0,115,133.83Z"/><path class="cls-3" d="M104.09,135.47l1.34-6.57-3.08,5.1a1.19,1.19,0,0,0,.37,1.61,1.12,1.12,0,0,0,1.37-.14Z"/></g></g><g id="Layer_2-4" data-name="Layer 2"><g id="Layer_1-2-3" data-name="Layer 1-2"><ellipse class="cls-3" cx="115.83" cy="123" rx="2.19" ry="2.25"/><path class="cls-3" d="M121.11,133.83l-3.63-6.43a2.61,2.61,0,0,0-1.75-1.44,2.55,2.55,0,0,0-3,2h0l-1.61,7.88h0l-2.17,10.72a1.51,1.51,0,0,0,1,1.76,1.44,1.44,0,0,0,1.77-1,.44.44,0,0,0,0-.1l1.62-8a.43.43,0,0,1,.77-.17l1.47,2v5.82a1.47,1.47,0,0,0,1.2,1.48,1.44,1.44,0,0,0,1.64-1.22,1.5,1.5,0,0,0,0-.22v-6.49h0a1.22,1.22,0,0,0-.24-.68l-2.12-2.85,1-5.08,1.86,3.3a1.23,1.23,0,0,0,1.7.46l.13-.09A1.33,1.33,0,0,0,121.11,133.83Z"/><path class="cls-3" d="M110.17,135.47l1.33-6.57-3.08,5.1a1.19,1.19,0,0,0,.37,1.61,1.13,1.13,0,0,0,1.38-.14Z"/></g></g><path class="cls-3" d="M175.79,121a2.24,2.24,0,1,0,2.19,2.24A2.21,2.21,0,0,0,175.79,121Z"/><path class="cls-3" d="M175.69,126.21a2.55,2.55,0,0,0-3,2v0l-1.1,5.38h5.18l.31-1.54.87,1.54h2.87l-3.38-6A2.6,2.6,0,0,0,175.69,126.21Z"/><path class="cls-3" d="M97.93,120.76a2.25,2.25,0,1,0,2.19,2.24A2.22,2.22,0,0,0,97.93,120.76Z"/><path class="cls-3" d="M97.82,126a2.55,2.55,0,0,0-3,2h0l-1.1,5.39h5.18l.32-1.54.87,1.54H103l-3.38-6A2.58,2.58,0,0,0,97.82,126Z"/><g id="Layer_2-5" data-name="Layer 2"><g id="Layer_1-2-4" data-name="Layer 1-2"><ellipse class="cls-3" cx="130.91" cy="123" rx="2.19" ry="2.25"/><path class="cls-3" d="M136.18,133.83l-3.63-6.43a2.5,2.5,0,0,0-4.76.59h0l-1.6,7.88h0L124,146.6a1.51,1.51,0,0,0,1,1.76,1.44,1.44,0,0,0,1.77-1,.3.3,0,0,1,0-.1l1.62-8a.43.43,0,0,1,.51-.34.39.39,0,0,1,.25.17l1.48,2v5.82a1.47,1.47,0,0,0,1.2,1.48,1.44,1.44,0,0,0,1.64-1.22,1.55,1.55,0,0,0,0-.22v-6.49h0a1.29,1.29,0,0,0-.23-.68l-2.12-2.85,1-5.08,1.86,3.3a1.24,1.24,0,0,0,1.71.46l.13-.09A1.33,1.33,0,0,0,136.18,133.83Z"/><path class="cls-3" d="M125.24,135.47l1.34-6.57L123.5,134a1.19,1.19,0,0,0,.37,1.61,1.12,1.12,0,0,0,1.37-.14Z"/></g></g><g id="Layer_2-6" data-name="Layer 2"><g id="Layer_1-2-5" data-name="Layer 1-2"><ellipse class="cls-3" cx="136.98" cy="123" rx="2.19" ry="2.25"/><path class="cls-3" d="M142.26,133.83l-3.63-6.43a2.61,2.61,0,0,0-1.75-1.44,2.55,2.55,0,0,0-3,2h0l-1.6,7.88h0l-2.17,10.72a1.51,1.51,0,0,0,1,1.76,1.44,1.44,0,0,0,1.77-1s0-.07,0-.1l1.62-8a.43.43,0,0,1,.77-.17l1.47,2v5.82a1.47,1.47,0,0,0,1.2,1.48,1.44,1.44,0,0,0,1.64-1.22,1.5,1.5,0,0,0,0-.22v-6.49h0a1.22,1.22,0,0,0-.24-.68l-2.12-2.85,1-5.08,1.86,3.3a1.23,1.23,0,0,0,1.7.46l.13-.09A1.33,1.33,0,0,0,142.26,133.83Z"/><path class="cls-3" d="M131.32,135.47l1.33-6.57-3.08,5.1a1.19,1.19,0,0,0,.37,1.61,1.13,1.13,0,0,0,1.38-.14Z"/></g></g><g id="Layer_2-7" data-name="Layer 2"><g id="Layer_1-2-6" data-name="Layer 1-2"><ellipse class="cls-3" cx="143.06" cy="123" rx="2.19" ry="2.25"/><path class="cls-3" d="M148.33,133.83l-3.63-6.43A2.58,2.58,0,0,0,143,126a2.55,2.55,0,0,0-3,2h0l-1.6,7.88h0l-2.18,10.72a1.51,1.51,0,0,0,1,1.76,1.42,1.42,0,0,0,1.76-1,.44.44,0,0,0,0-.1l1.62-8a.44.44,0,0,1,.51-.34.41.41,0,0,1,.26.17l1.47,2v5.82a1.48,1.48,0,0,0,1.21,1.48,1.43,1.43,0,0,0,1.63-1.22,1.5,1.5,0,0,0,0-.22v-6.49h0a1.22,1.22,0,0,0-.24-.68l-2.11-2.85,1-5.08,1.86,3.3a1.23,1.23,0,0,0,1.7.46l.14-.09A1.34,1.34,0,0,0,148.33,133.83Z"/><path class="cls-3" d="M137.39,135.47l1.33-6.57-3.07,5.1a1.18,1.18,0,0,0,.37,1.61,1.12,1.12,0,0,0,1.37-.14Z"/></g></g><path class="cls-3" d="M125.15,120.76a2.25,2.25,0,1,0,2.19,2.24A2.21,2.21,0,0,0,125.15,120.76Z"/><path class="cls-3" d="M125,126a2.55,2.55,0,0,0-3,2h0l-1.1,5.39h5.19l.31-1.54.87,1.54h2.87l-3.38-6A2.58,2.58,0,0,0,125,126Z"/><path class="cls-3" d="M88.41,120.76A2.25,2.25,0,1,0,90.6,123,2.22,2.22,0,0,0,88.41,120.76Z"/><path class="cls-3" d="M88.3,126a2.55,2.55,0,0,0-3,2h0l-1.1,5.39h5.18l.32-1.54.87,1.54h2.87l-3.38-6A2.58,2.58,0,0,0,88.3,126Z"/><path class="cls-3" d="M70.75,120.76A2.25,2.25,0,1,0,72.94,123,2.22,2.22,0,0,0,70.75,120.76Z"/><path class="cls-3" d="M70.64,126a2.55,2.55,0,0,0-3,2h0l-1.1,5.39h5.19l.31-1.54.87,1.54h2.87l-3.38-6A2.58,2.58,0,0,0,70.64,126Z"/><path class="cls-3" d="M76.63,120.76a2.25,2.25,0,1,0,2.2,2.24A2.21,2.21,0,0,0,76.63,120.76Z"/><path class="cls-3" d="M76.53,126a2.55,2.55,0,0,0-3,2h0l-1.09,5.39H77.6l.32-1.54.87,1.54h2.87l-3.38-6A2.61,2.61,0,0,0,76.53,126Z"/><path class="cls-3" d="M82.52,120.76A2.25,2.25,0,1,0,84.71,123,2.21,2.21,0,0,0,82.52,120.76Z"/><path class="cls-3" d="M82.41,126a2.56,2.56,0,0,0-3,2h0l-1.1,5.39h5.19l.31-1.54.87,1.54h2.87l-3.38-6A2.58,2.58,0,0,0,82.41,126Z"/><polygon class="cls-3" points="175.87 135 177.76 135 178.72 130.29 175.87 135"/><path class="cls-4" d="M178.28,148.75a2.18,2.18,0,1,0,2.13,2.18A2.15,2.15,0,0,0,178.28,148.75Z"/><path class="cls-4" d="M198.43,133.35c-.3-1.61-2.69-11-2.69-11-1.85-7.77-3.93-15-5.87-15h-123c-4.05,0-5.35,21-5.35,23.09v18.05a3.8,3.8,0,0,0,3.74,3.83H74a9.63,9.63,0,0,1-.11-1.43,10.34,10.34,0,1,1,20.68,0,11.19,11.19,0,0,1-.1,1.43h73.62a11.19,11.19,0,0,1-.11-1.43,10.34,10.34,0,1,1,20.68,0,11.19,11.19,0,0,1-.1,1.43h6.16a3.81,3.81,0,0,0,3.75-3.82S198.72,135,198.43,133.35Zm-107-3.2a1.74,1.74,0,0,1-1.71,1.75H68.25a1.74,1.74,0,0,1-1.72-1.75l2.13-15.62a1.74,1.74,0,0,1,1.72-1.75H89.75a1.74,1.74,0,0,1,1.71,1.75Zm27.25.17a1.57,1.57,0,0,1-1.55,1.58H96.56A1.56,1.56,0,0,1,95,130.32v-16a1.56,1.56,0,0,1,1.54-1.58h20.6a1.57,1.57,0,0,1,1.55,1.58Zm27.24,0a1.56,1.56,0,0,1-1.54,1.58h-20.6a1.56,1.56,0,0,1-1.54-1.58v-16a1.56,1.56,0,0,1,1.54-1.58h20.6a1.56,1.56,0,0,1,1.54,1.58Zm19.1,13.9a2.38,2.38,0,0,1-2.16,2.55H151.67a2.38,2.38,0,0,1-2.16-2.55v-28.9a2.38,2.38,0,0,1,2.16-2.54h11.22a2.38,2.38,0,0,1,2.16,2.54Zm26.18-12.32h-21a1.61,1.61,0,0,1-1.58-1.62V114.4a1.61,1.61,0,0,1,1.58-1.62h17.09a1.78,1.78,0,0,1,1.72,1.36L193,129.62A1.8,1.8,0,0,1,191.23,131.9Z"/><path class="cls-4" d="M84.19,148.75a2.18,2.18,0,1,0,2.13,2.18A2.16,2.16,0,0,0,84.19,148.75Z"/><path class="cls-4" d="M84.19,142.59a8.34,8.34,0,1,0,8.14,8.34A8.25,8.25,0,0,0,84.19,142.59Zm0,12a3.68,3.68,0,1,1,3.6-3.68A3.65,3.65,0,0,1,84.19,154.61Z"/><path class="cls-4" d="M178.28,148.75a2.18,2.18,0,1,0,2.13,2.18A2.15,2.15,0,0,0,178.28,148.75Z"/><path class="cls-4" d="M178.28,142.59a8.34,8.34,0,1,0,8.15,8.34A8.25,8.25,0,0,0,178.28,142.59Zm0,12a3.68,3.68,0,1,1,3.6-3.68A3.64,3.64,0,0,1,178.28,154.61Z"/><text class="cls-5" transform="matrix(0.23, -0.97, 0.97, 0.23, 24.49, 107.96)">T</text><text class="cls-5" transform="translate(26.36 99.87) rotate(-71.93)">R</text><text class="cls-5" transform="matrix(0.4, -0.92, 0.92, 0.4, 29.21, 91.04)">A</text><text class="cls-5" transform="translate(33.13 81.88) rotate(-60.82)">N</text><text class="cls-5" transform="translate(38.67 72.09) rotate(-55.57)">S</text><text class="cls-5" transform="translate(43.22 65.54) rotate(-52.19)">I</text><text class="cls-5" transform="translate(45.93 61.95) rotate(-48.68)">T</text><text class="cls-5" transform="matrix(0.7, -0.71, 0.71, 0.7, 51.47, 55.73)"> </text><text class="cls-5" transform="matrix(0.75, -0.66, 0.66, 0.75, 54.11, 52.89)">D</text><text class="cls-5" transform="matrix(0.8, -0.6, 0.6, 0.8, 62.01, 45.98)">E</text><text class="cls-5" transform="matrix(0.85, -0.53, 0.53, 0.85, 68.07, 41.44)">V</text><text class="cls-5" transform="translate(76.18 36.44) rotate(-27.18)">E</text><text class="cls-5" transform="translate(82.89 32.99) rotate(-23.12)">L</text><text class="cls-5" transform="translate(89.16 30.2) rotate(-18.35)">O</text><text class="cls-5" transform="translate(99.41 26.85) rotate(-12.98)">P</text><text class="cls-5" transform="translate(107.84 24.75) rotate(-6.86)">M</text><text class="cls-5" transform="matrix(1, -0.03, 0.03, 1, 121.42, 23.29)">E</text><text class="cls-5" transform="matrix(1, 0.07, -0.07, 1, 128.93, 23.02)">N</text><text class="cls-5" transform="matrix(0.99, 0.16, -0.16, 0.99, 140.12, 23.85)">T</text><text class="cls-5" transform="matrix(0.98, 0.22, -0.22, 0.98, 148.37, 25.25)"> </text><text class="cls-5" transform="translate(152.19 26.03) rotate(16.11)">P</text><text class="cls-5" transform="translate(160.57 28.47) rotate(20.52)">L</text><text class="cls-5" transform="translate(167.64 31.06) rotate(25.43)">A</text><text class="cls-5" transform="translate(176.67 35.31) rotate(31.24)">N</text></g></svg>