<svg xmlns="http://www.w3.org/2000/svg" viewBox="0 0 254.3 253.28"><defs><style>.cls-1,.cls-2{fill:#5ab9e3;}.cls-1{opacity:0.5;}.cls-3{fill:#13606d;}.cls-4{opacity:0.69;}.cls-5,.cls-7{fill:#167085;}.cls-6{fill:#103c44;}.cls-7{font-size:14.51px;font-family:SegoeUI-Bold, Segoe UI;font-weight:700;}</style></defs><g id="Layer_3" data-name="Layer 3"><circle class="cls-1" cx="128.11" cy="127.54" r="123.5"/><circle class="cls-2" cx="128.11" cy="127.54" r="103.99"/><path class="cls-3" d="M176.51,112.39a2.24,2.24,0,1,0,2.18,2.23A2.21,2.21,0,0,0,176.51,112.39Z"/><path class="cls-3" d="M176.69,117.49a2.55,2.55,0,0,0-3,2h0l-.17.85h5.73l-.82-1.45A2.6,2.6,0,0,0,176.69,117.49Z"/><g class="cls-4"><rect class="cls-5" x="44.71" y="99.53" width="117.54" height="31.24" rx="2.22"/><path class="cls-5" d="M58.32,140.28A8.49,8.49,0,0,0,48,150.86a8.34,8.34,0,0,0,5.79,5.93,8.49,8.49,0,0,0,10.33-10.58A8.35,8.35,0,0,0,58.32,140.28Zm-2.27,12a3.79,3.79,0,1,1,3.7-3.79A3.75,3.75,0,0,1,56.05,152.32Z"/><path class="cls-5" d="M56.05,146.33a2.2,2.2,0,1,0,2.15,2.2A2.18,2.18,0,0,0,56.05,146.33Z"/><path class="cls-5" d="M198.85,135.26H197a1.67,1.67,0,0,1-1.65-1.69V120l-.12-.7-6.56-18.71a1.65,1.65,0,0,0-1.53-1.06H168.25a1.67,1.67,0,0,0-1.65,1.69V127a8.21,8.21,0,0,1-8.12,8.31H42A1.66,1.66,0,0,0,40.38,137v5.17A1.67,1.67,0,0,0,42,143.81h4.39a10.54,10.54,0,0,1,19.25,0h4a10.54,10.54,0,0,1,19.25,0H172a10.54,10.54,0,0,1,19.24,0h7.59a1.67,1.67,0,0,0,1.65-1.69V137A1.67,1.67,0,0,0,198.85,135.26Zm-11.79-14.89H173.35a2.21,2.21,0,0,1-2.19-2.24V106a2.22,2.22,0,0,1,2.19-2.25h10.31a2.21,2.21,0,0,1,2.06,1.46l3.39,12.14A2.23,2.23,0,0,1,187.06,120.37Z"/><path class="cls-5" d="M79.27,146.33a2.2,2.2,0,1,0,2.15,2.2A2.18,2.18,0,0,0,79.27,146.33Z"/><path class="cls-5" d="M81.54,140.28a8.49,8.49,0,0,0-10.33,10.58A8.34,8.34,0,0,0,77,156.79a8.49,8.49,0,0,0,10.34-10.58A8.35,8.35,0,0,0,81.54,140.28Zm-2.27,12a3.79,3.79,0,1,1,3.7-3.79A3.75,3.75,0,0,1,79.27,152.32Z"/><path class="cls-5" d="M181.64,146.33a2.2,2.2,0,1,0,2.15,2.2A2.18,2.18,0,0,0,181.64,146.33Z"/><path class="cls-5" d="M183.91,140.28a8.49,8.49,0,0,0-10.33,10.58,8.35,8.35,0,0,0,5.79,5.93,8.49,8.49,0,0,0,10.33-10.58A8.35,8.35,0,0,0,183.91,140.28Zm-2.27,12a3.79,3.79,0,1,1,3.7-3.79A3.75,3.75,0,0,1,181.64,152.32Z"/></g><g id="Layer_2-2" data-name="Layer 2"><g id="Layer_1-2" data-name="Layer 1-2"><path class="cls-3" d="M98.61,157.44a8.5,8.5,0,1,1,8.3-8.5A8.4,8.4,0,0,1,98.61,157.44Zm0-15.39a6.9,6.9,0,1,0,6.74,6.89h0a6.83,6.83,0,0,0-6.74-6.89Z"/><path class="cls-3" d="M122.18,157.44a8.5,8.5,0,1,1,8.3-8.5A8.4,8.4,0,0,1,122.18,157.44Zm0-15.39a6.9,6.9,0,1,0,6.74,6.89h0a6.83,6.83,0,0,0-6.74-6.89Z"/><path class="cls-3" d="M122.18,149.74a.78.78,0,0,1-.74-.57l-4.39-14.94a.8.8,0,0,1,.49-1,.77.77,0,0,1,1,.5s0,0,0,.05l4.39,14.94a.81.81,0,0,1-.52,1,.85.85,0,0,1-.23,0Z"/><path class="cls-3" d="M115.26,135.2a.8.8,0,0,1-.11-1.59l2.53-.4a.79.79,0,0,1,.9.65.81.81,0,0,1-.65.93h0l-2.53.4Z"/><path class="cls-3" d="M111.14,137.78l-3.75-.8V132.8l4.12,2.26a1.41,1.41,0,0,0,1.93-.6h0a1.49,1.49,0,0,0-.58-2l-5.47-3h0l-.2-.11-.91-.5,0,0-1.16-.64a2.47,2.47,0,0,0-3.65,2.15v5.78a4.84,4.84,0,0,0,3.79,4.77l4.68,1-1.52,7.46a1.68,1.68,0,0,0,1.29,2,1.63,1.63,0,0,0,1.93-1.3l1.52-7.45h0l.26-1.31v0l0-.27h0A3,3,0,0,0,111.14,137.78Z"/><ellipse class="cls-3" cx="105.06" cy="124.27" rx="2.75" ry="2.82"/></g></g><path class="cls-3" d="M172.89,130.15a2.24,2.24,0,1,0,2.18,2.23A2.21,2.21,0,0,0,172.89,130.15Z"/><path class="cls-3" d="M172.79,135.33a2.53,2.53,0,0,0-3,2h0l-1.09,5.37h5.16l.31-1.54.86,1.54h2.86l-3.36-6A2.57,2.57,0,0,0,172.79,135.33Z"/><g id="Layer_1-2-2" data-name="Layer 1-2"><path class="cls-6" d="M133.27,142.64c1.11,2.35.52,5.63.9,6.85a5.69,5.69,0,0,0,.69,1.5,4.05,4.05,0,0,0,3.55,1.88h4.34a7.9,7.9,0,0,1,0-4.15,7.7,7.7,0,0,1,9.47-5.56,7.94,7.94,0,0,1,5.43,9.71h29.91a8,8,0,0,1,0-4.17,7.69,7.69,0,0,1,9.48-5.54,7.93,7.93,0,0,1,5.42,9.71h4.8a4.21,4.21,0,0,0,3-1.14,8.12,8.12,0,0,0,1.48-2c.15-.28.34-.66.58-1.22s.41-1,.43-1c.32-.87-1.1-3.1-3.59-4.87-5.44-3.86-14.34-5.35-17.5-5.81a26.13,26.13,0,0,0-8-6.86c-9.67-5.43-20.1-3.78-21.66-3.5a29.48,29.48,0,0,0-19,11.39c-8.65.6-10.92,1.72-11.11,2.74C131.83,141.17,132.6,141.21,133.27,142.64ZM169,128.56a27.83,27.83,0,0,1,17,6.75c.68.59.18,1.57-.79,1.57L169,137v-8.39ZM150.13,137c-1,0-1.49-1-.83-1.56a27.51,27.51,0,0,1,17-6.9V137l-16.15.07Z"/><path class="cls-6" d="M188.85,150.79h0a6.16,6.16,0,1,0,6.15-6.31A6.23,6.23,0,0,0,188.85,150.8Zm6.15,2.27a2.27,2.27,0,1,1,2.21-2.27,2.24,2.24,0,0,1-2.21,2.27Z"/><path class="cls-6" d="M144,150.79h0a6.16,6.16,0,1,0,6.16-6.31A6.23,6.23,0,0,0,144,150.8Zm6.16,2.27a2.27,2.27,0,1,1,2.21-2.27,2.24,2.24,0,0,1-2.21,2.27Z"/><ellipse class="cls-6" cx="195" cy="150.79" rx="0.92" ry="0.94"/><ellipse class="cls-6" cx="150.2" cy="150.79" rx="0.92" ry="0.94"/></g><text class="cls-7" transform="translate(24.4 140.15) rotate(-92.93)">M</text><text class="cls-7" transform="translate(23.85 126.52) rotate(-87.08)">E</text><text class="cls-7" transform="translate(24.22 118.85) rotate(-82.62)">T</text><text class="cls-7" transform="translate(25.26 110.62) rotate(-77.79)">R</text><text class="cls-7" transform="translate(27.14 101.69) rotate(-72.36)">O</text><text class="cls-7" transform="translate(30.44 91.42) rotate(-67.03)">P</text><text class="cls-7" transform="translate(33.78 83.39) rotate(-61.71)">O</text><text class="cls-7" transform="translate(38.97 73.9) rotate(-56.78)">L</text><text class="cls-7" transform="translate(42.99 67.83) rotate(-53.56)">I</text><text class="cls-7" transform="translate(45.58 64.21) rotate(-50.05)">T</text><text class="cls-7" transform="translate(50.2 58.57) rotate(-45.57)">A</text><text class="cls-7" transform="matrix(0.77, -0.64, 0.64, 0.77, 57.16, 51.4)">N</text><text class="cls-7" transform="translate(65.95 44.28) rotate(-35.51)"> </text><text class="cls-7" transform="translate(69.05 41.98) rotate(-32.12)">T</text><text class="cls-7" transform="translate(76.05 37.55) rotate(-27.28)">R</text><text class="cls-7" transform="matrix(0.93, -0.37, 0.37, 0.93, 84.28, 33.28)">A</text><text class="cls-7" transform="translate(93.52 29.5) rotate(-16.26)">N</text><text class="cls-7" transform="translate(104.33 26.41) rotate(-11.03)">S</text><text class="cls-7" transform="matrix(0.99, -0.11, 0.11, 0.99, 112.12, 24.87)">P</text><text class="cls-7" transform="translate(120.77 23.84) rotate(-1.04)">O</text><text class="cls-7" transform="translate(131.54 23.67) rotate(4.5)">R</text><text class="cls-7" transform="translate(140.51 24.37) rotate(9.2)">T</text><text class="cls-7" transform="translate(147.72 25.46) rotate(13.68)">A</text><text class="cls-7" transform="matrix(0.95, 0.31, -0.31, 0.95, 156.48, 27.58)">T</text><text class="cls-7" transform="translate(164.41 30.24) rotate(21.67)">I</text><text class="cls-7" transform="translate(168.57 31.76) rotate(25.83)">O</text><text class="cls-7" transform="matrix(0.85, 0.53, -0.53, 0.85, 178.27, 36.42)">N</text><text class="cls-7" transform="matrix(0.81, 0.59, -0.59, 0.81, 187.81, 42.5)"> </text><text class="cls-7" transform="translate(190.98 44.71) rotate(39.45)">P</text><text class="cls-7" transform="translate(197.71 50.27) rotate(43.84)">L</text><text class="cls-7" transform="matrix(0.66, 0.75, -0.75, 0.66, 203.19, 55.46)">A</text><text class="cls-7" transform="translate(209.77 62.9) rotate(54.62)">N</text></g></svg>