<svg xmlns="http://www.w3.org/2000/svg" viewBox="0 0 1066.67 370.94"><defs><style>.cls-1,.cls-14{fill:#bfd84b;}.cls-1,.cls-2,.cls-3{opacity:0.5;}.cls-2,.cls-4{fill:#5ab9e3;}.cls-10,.cls-3{fill:#16b795;}.cls-5{fill:#13606d;}.cls-6{opacity:0.69;}.cls-7,.cls-9{fill:#167085;}.cls-8{fill:#103c44;}.cls-13,.cls-9{font-size:14.51px;}.cls-13,.cls-18,.cls-9{font-family:SegoeUI-Bold, Segoe UI;font-weight:700;}.cls-11,.cls-13{fill:#007556;}.cls-12{fill:#00452e;}.cls-15{fill:#819c3c;}.cls-16{fill:#434d22;}.cls-17,.cls-18{fill:#809b3c;}.cls-18{font-size:14.51px;}</style></defs><g id="Layer_3" data-name="Layer 3"><circle class="cls-1" cx="858.68" cy="188.04" r="123.5"/><circle class="cls-2" cx="201.34" cy="188.4" r="123.5"/><circle class="cls-3" cx="530.47" cy="187.82" r="123.5"/><circle class="cls-4" cx="201.34" cy="188.4" r="103.99"/><path class="cls-5" d="M249.73,173.24a2.24,2.24,0,1,0,2.19,2.24A2.21,2.21,0,0,0,249.73,173.24Z"/><path class="cls-5" d="M249.92,178.35a2.54,2.54,0,0,0-3,2h0l-.17.84h5.73l-.82-1.45A2.57,2.57,0,0,0,249.92,178.35Z"/><g class="cls-6"><rect class="cls-7" x="117.93" y="160.38" width="117.54" height="31.24" rx="2.22"/><path class="cls-7" d="M131.55,201.13a8.5,8.5,0,0,0-10.34,10.59,8.34,8.34,0,0,0,5.79,5.92,8.5,8.5,0,0,0,10.34-10.58A8.35,8.35,0,0,0,131.55,201.13Zm-2.27,12.05a3.79,3.79,0,1,1,3.7-3.79A3.75,3.75,0,0,1,129.28,213.18Z"/><path class="cls-7" d="M129.28,207.19a2.2,2.2,0,1,0,2.14,2.2A2.18,2.18,0,0,0,129.28,207.19Z"/><path class="cls-7" d="M272.08,196.11h-1.86a1.67,1.67,0,0,1-1.65-1.69V180.85l-.11-.7-6.56-18.71a1.67,1.67,0,0,0-1.54-1.06H241.48a1.67,1.67,0,0,0-1.65,1.69V187.8a8.22,8.22,0,0,1-8.12,8.31H115.25a1.67,1.67,0,0,0-1.65,1.69V203a1.67,1.67,0,0,0,1.65,1.69h4.4a10.54,10.54,0,0,1,19.25,0h4a10.54,10.54,0,0,1,19.25,0h83.12a10.54,10.54,0,0,1,19.25,0h7.59a1.66,1.66,0,0,0,1.65-1.68V197.8A1.67,1.67,0,0,0,272.08,196.11Zm-11.79-14.88H246.58a2.22,2.22,0,0,1-2.19-2.25V166.84a2.21,2.21,0,0,1,2.19-2.24h10.31a2.2,2.2,0,0,1,2.06,1.46l3.39,12.14A2.23,2.23,0,0,1,260.29,181.23Z"/><path class="cls-7" d="M152.5,207.19a2.2,2.2,0,1,0,2.14,2.2A2.18,2.18,0,0,0,152.5,207.19Z"/><path class="cls-7" d="M154.77,201.13a8.5,8.5,0,0,0-10.34,10.59,8.34,8.34,0,0,0,5.79,5.92,8.5,8.5,0,0,0,10.34-10.58A8.35,8.35,0,0,0,154.77,201.13Zm-2.28,12.05a3.79,3.79,0,1,1,3.71-3.79A3.75,3.75,0,0,1,152.49,213.18Z"/><path class="cls-7" d="M254.87,207.19a2.2,2.2,0,1,0,2.15,2.2A2.18,2.18,0,0,0,254.87,207.19Z"/><path class="cls-7" d="M257.14,201.13a8.5,8.5,0,0,0-10.33,10.59,8.33,8.33,0,0,0,5.78,5.92,8.49,8.49,0,0,0,10.34-10.58A8.35,8.35,0,0,0,257.14,201.13Zm-2.27,12.05a3.79,3.79,0,1,1,3.7-3.79A3.75,3.75,0,0,1,254.87,213.18Z"/></g><g id="Layer_2-2" data-name="Layer 2"><g id="Layer_1-2" data-name="Layer 1-2"><path class="cls-5" d="M171.84,218.29a8.5,8.5,0,1,1,8.3-8.49A8.4,8.4,0,0,1,171.84,218.29Zm0-15.39a6.9,6.9,0,1,0,6.74,6.9h0a6.84,6.84,0,0,0-6.74-6.9Z"/><path class="cls-5" d="M195.41,218.29a8.5,8.5,0,1,1,8.3-8.49A8.38,8.38,0,0,1,195.41,218.29Zm0-15.39a6.9,6.9,0,1,0,6.74,6.9h0a6.84,6.84,0,0,0-6.74-6.9Z"/><path class="cls-5" d="M195.41,210.6a.79.79,0,0,1-.75-.57l-4.39-14.95a.81.81,0,0,1,.5-1,.78.78,0,0,1,1,.5.43.43,0,0,0,0,.05l4.39,14.95a.8.8,0,0,1-.52,1,.62.62,0,0,1-.23,0Z"/><path class="cls-5" d="M188.49,196.06a.8.8,0,0,1-.12-1.59l2.53-.41a.8.8,0,0,1,.26,1.58h0l-2.53.41Z"/><path class="cls-5" d="M184.37,198.63l-3.75-.79v-4.18l4.11,2.26a1.42,1.42,0,0,0,1.94-.6h0a1.5,1.5,0,0,0-.58-2l-5.47-3h0l-.2-.11-.91-.5,0,0-1.17-.63a2.45,2.45,0,0,0-3.64,2.14V197a4.85,4.85,0,0,0,3.79,4.78l4.68,1-1.52,7.45a1.7,1.7,0,0,0,1.29,2,1.65,1.65,0,0,0,1.93-1.3l1.51-7.45h0l.27-1.32h0l0-.28h0A3,3,0,0,0,184.37,198.63Z"/><ellipse class="cls-5" cx="178.29" cy="185.13" rx="2.75" ry="2.82"/></g></g><path class="cls-5" d="M246.12,191a2.24,2.24,0,1,0,2.18,2.24A2.21,2.21,0,0,0,246.12,191Z"/><path class="cls-5" d="M246,196.18a2.54,2.54,0,0,0-3,2h0l-1.09,5.37h5.16l.32-1.54.86,1.54h2.86l-3.37-6A2.56,2.56,0,0,0,246,196.18Z"/><g id="Layer_1-2-2" data-name="Layer 1-2"><path class="cls-8" d="M206.5,203.49c1.1,2.35.52,5.64.89,6.86a6,6,0,0,0,.7,1.5,4,4,0,0,0,3.55,1.87H216a8.11,8.11,0,0,1,0-4.15,7.71,7.71,0,0,1,9.48-5.55,7.92,7.92,0,0,1,5.43,9.7h29.9a8.19,8.19,0,0,1,0-4.17,7.71,7.71,0,0,1,9.49-5.54,7.93,7.93,0,0,1,5.42,9.71h4.79a4.21,4.21,0,0,0,3-1.13,8.43,8.43,0,0,0,1.48-2.06c.14-.27.34-.66.58-1.21s.41-1,.43-1c.31-.86-1.1-3.09-3.59-4.86-5.44-3.87-14.34-5.36-17.5-5.81a26,26,0,0,0-8-6.86c-9.68-5.44-20.1-3.78-21.67-3.51a29.47,29.47,0,0,0-19,11.4c-8.66.6-10.93,1.71-11.11,2.74C205.06,202,205.83,202.07,206.5,203.49Zm35.68-14.07a27.77,27.77,0,0,1,17,6.74c.68.6.18,1.57-.79,1.57l-16.17.07v-8.37Zm-18.83,8.47c-1,0-1.49-1-.82-1.56a27.42,27.42,0,0,1,17-6.9v8.38l-16.16.08Z"/><path class="cls-8" d="M262.08,211.65h0a6.16,6.16,0,1,0,6.15-6.3A6.22,6.22,0,0,0,262.08,211.65Zm6.15,2.26a2.26,2.26,0,1,1,2.21-2.26,2.23,2.23,0,0,1-2.21,2.26Z"/><path class="cls-8" d="M217.27,211.65h0a6.16,6.16,0,1,0,6.15-6.3A6.23,6.23,0,0,0,217.27,211.65Zm6.15,2.26a2.26,2.26,0,1,1,2.21-2.26,2.23,2.23,0,0,1-2.21,2.26Z"/><ellipse class="cls-8" cx="268.23" cy="211.65" rx="0.92" ry="0.94"/><ellipse class="cls-8" cx="223.42" cy="211.65" rx="0.92" ry="0.94"/></g><text class="cls-9" transform="matrix(-0.05, -1, 1, -0.05, 97.61, 200.97)">M</text><text class="cls-9" transform="translate(97.06 187.34) rotate(-87.08)">E</text><text class="cls-9" transform="translate(97.43 179.67) rotate(-82.62)">T</text><text class="cls-9" transform="translate(98.47 171.45) rotate(-77.79)">R</text><text class="cls-9" transform="translate(100.35 162.51) rotate(-72.36)">O</text><text class="cls-9" transform="translate(103.65 152.24) rotate(-67.03)">P</text><text class="cls-9" transform="matrix(0.47, -0.88, 0.88, 0.47, 106.99, 144.22)">O</text><text class="cls-9" transform="translate(112.18 134.72) rotate(-56.78)">L</text><text class="cls-9" transform="translate(116.2 128.65) rotate(-53.56)">I</text><text class="cls-9" transform="translate(118.78 125.04) rotate(-50.05)">T</text><text class="cls-9" transform="matrix(0.7, -0.71, 0.71, 0.7, 123.41, 119.39)">A</text><text class="cls-9" transform="translate(130.37 112.23) rotate(-39.71)">N</text><text class="cls-9" transform="translate(139.15 105.1) rotate(-35.51)"> </text><text class="cls-9" transform="translate(142.25 102.8) rotate(-32.12)">T</text><text class="cls-9" transform="translate(149.25 98.37) rotate(-27.28)">R</text><text class="cls-9" transform="matrix(0.93, -0.37, 0.37, 0.93, 157.49, 94.1)">A</text><text class="cls-9" transform="translate(166.72 90.32) rotate(-16.26)">N</text><text class="cls-9" transform="translate(177.54 87.24) rotate(-11.03)">S</text><text class="cls-9" transform="translate(185.32 85.7) rotate(-6.44)">P</text><text class="cls-9" transform="translate(193.98 84.66) rotate(-1.04)">O</text><text class="cls-9" transform="translate(204.75 84.49) rotate(4.5)">R</text><text class="cls-9" transform="matrix(0.99, 0.16, -0.16, 0.99, 213.71, 85.19)">T</text><text class="cls-9" transform="translate(220.93 86.28) rotate(13.68)">A</text><text class="cls-9" transform="translate(229.69 88.4) rotate(18.16)">T</text><text class="cls-9" transform="translate(237.62 91.06) rotate(21.67)">I</text><text class="cls-9" transform="translate(241.78 92.58) rotate(25.83)">O</text><text class="cls-9" transform="matrix(0.85, 0.53, -0.53, 0.85, 251.47, 97.25)">N</text><text class="cls-9" transform="translate(261.02 103.32) rotate(35.99)"> </text><text class="cls-9" transform="matrix(0.77, 0.64, -0.64, 0.77, 264.19, 105.53)">P</text><text class="cls-9" transform="translate(270.92 111.09) rotate(43.84)">L</text><text class="cls-9" transform="translate(276.4 116.28) rotate(48.78)">A</text><text class="cls-9" transform="matrix(0.58, 0.82, -0.82, 0.58, 282.98, 123.72)">N</text><circle class="cls-10" cx="530.47" cy="187.82" r="104.47"/><g id="Layer_2-3" data-name="Layer 2"><g id="Layer_1-2-3" data-name="Layer 1-2"><ellipse class="cls-11" cx="507.01" cy="183.28" rx="2.19" ry="2.25"/><path class="cls-11" d="M512.28,194.11l-3.63-6.44a2.6,2.6,0,0,0-1.75-1.43,2.55,2.55,0,0,0-3,2h0l-1.6,7.88h0l-2.18,10.73a1.5,1.5,0,0,0,1,1.75,1.42,1.42,0,0,0,1.76-1l0-.09,1.62-8a.43.43,0,0,1,.76-.18l1.48,2v5.82a1.49,1.49,0,0,0,1.2,1.49,1.43,1.43,0,0,0,1.63-1.22,1.64,1.64,0,0,0,0-.22v-6.49h0a1.26,1.26,0,0,0-.23-.68l-2.12-2.85,1-5.09,1.86,3.3a1.24,1.24,0,0,0,1.71.47l.13-.1A1.32,1.32,0,0,0,512.28,194.11Z"/><path class="cls-11" d="M501.34,195.75l1.34-6.57-3.08,5.1a1.17,1.17,0,0,0,.37,1.6,1.12,1.12,0,0,0,1.37-.13Z"/></g></g><g id="Layer_2-4" data-name="Layer 2"><g id="Layer_1-2-4" data-name="Layer 1-2"><ellipse class="cls-11" cx="513.08" cy="183.28" rx="2.19" ry="2.25"/><path class="cls-11" d="M518.36,194.11l-3.64-6.44a2.58,2.58,0,0,0-1.74-1.43,2.54,2.54,0,0,0-3,2h0l-1.6,7.88h0l-2.17,10.73a1.49,1.49,0,0,0,1,1.75,1.43,1.43,0,0,0,1.77-1s0-.06,0-.09l1.62-8a.43.43,0,0,1,.51-.34.42.42,0,0,1,.25.16l1.48,2v5.82a1.49,1.49,0,0,0,1.2,1.49,1.45,1.45,0,0,0,1.64-1.22,1.62,1.62,0,0,0,0-.22v-6.49h0a1.18,1.18,0,0,0-.23-.68l-2.12-2.85,1-5.09,1.86,3.3a1.23,1.23,0,0,0,1.7.47l.13-.1A1.32,1.32,0,0,0,518.36,194.11Z"/><path class="cls-11" d="M507.41,195.75l1.34-6.57-3.08,5.1a1.18,1.18,0,0,0,.37,1.6,1.11,1.11,0,0,0,1.37-.13Z"/></g></g><g id="Layer_2-5" data-name="Layer 2"><g id="Layer_1-2-5" data-name="Layer 1-2"><ellipse class="cls-11" cx="519.16" cy="183.28" rx="2.19" ry="2.25"/><path class="cls-11" d="M524.43,194.11l-3.63-6.44a2.6,2.6,0,0,0-1.75-1.43,2.54,2.54,0,0,0-3,2h0l-1.6,7.88h0l-2.18,10.73a1.5,1.5,0,0,0,1,1.75,1.42,1.42,0,0,0,1.77-1,.29.29,0,0,0,0-.09l1.62-8a.43.43,0,0,1,.51-.34.48.48,0,0,1,.26.16l1.47,2v5.82a1.49,1.49,0,0,0,1.2,1.49,1.44,1.44,0,0,0,1.64-1.22,1.64,1.64,0,0,0,0-.22v-6.49h0a1.19,1.19,0,0,0-.24-.68l-2.11-2.85,1-5.09,1.86,3.3a1.23,1.23,0,0,0,1.7.47l.14-.1A1.33,1.33,0,0,0,524.43,194.11Z"/><path class="cls-11" d="M513.49,195.75l1.33-6.57-3.08,5.1a1.18,1.18,0,0,0,.38,1.6,1.12,1.12,0,0,0,1.37-.13Z"/></g></g><path class="cls-11" d="M579.11,181.29a2.25,2.25,0,1,0,2.19,2.24A2.22,2.22,0,0,0,579.11,181.29Z"/><path class="cls-11" d="M579,186.49a2.55,2.55,0,0,0-3,2h0l-1.1,5.39h5.18l.31-1.54.87,1.54h2.87l-3.38-6A2.57,2.57,0,0,0,579,186.49Z"/><path class="cls-11" d="M501.25,181a2.25,2.25,0,1,0,2.19,2.25A2.23,2.23,0,0,0,501.25,181Z"/><path class="cls-11" d="M501.14,186.24a2.55,2.55,0,0,0-3,2h0l-1.1,5.4h5.19l.31-1.55.87,1.55h2.87l-3.38-6A2.6,2.6,0,0,0,501.14,186.24Z"/><g id="Layer_2-6" data-name="Layer 2"><g id="Layer_1-2-6" data-name="Layer 1-2"><ellipse class="cls-11" cx="534.23" cy="183.28" rx="2.19" ry="2.25"/><path class="cls-11" d="M539.5,194.11l-3.63-6.44a2.58,2.58,0,0,0-1.74-1.43,2.54,2.54,0,0,0-3,2h0l-1.6,7.88h0l-2.17,10.73a1.49,1.49,0,0,0,1,1.75,1.43,1.43,0,0,0,1.77-1s0-.06,0-.09l1.62-8a.43.43,0,0,1,.51-.34.42.42,0,0,1,.25.16l1.48,2v5.82a1.49,1.49,0,0,0,1.2,1.49,1.45,1.45,0,0,0,1.64-1.22,1.62,1.62,0,0,0,0-.22v-6.49h0a1.18,1.18,0,0,0-.23-.68l-2.12-2.85,1-5.09,1.87,3.3a1.23,1.23,0,0,0,1.7.47l.13-.1A1.3,1.3,0,0,0,539.5,194.11Z"/><path class="cls-11" d="M528.56,195.75l1.34-6.57-3.08,5.1a1.18,1.18,0,0,0,.37,1.6,1.11,1.11,0,0,0,1.37-.13Z"/></g></g><g id="Layer_2-7" data-name="Layer 2"><g id="Layer_1-2-7" data-name="Layer 1-2"><ellipse class="cls-11" cx="540.31" cy="183.28" rx="2.19" ry="2.25"/><path class="cls-11" d="M545.58,194.11,542,187.67a2.62,2.62,0,0,0-1.75-1.43,2.54,2.54,0,0,0-3,2h0l-1.6,7.88h0l-2.18,10.73a1.5,1.5,0,0,0,1,1.75,1.43,1.43,0,0,0,1.77-1,.29.29,0,0,0,0-.09l1.62-8a.43.43,0,0,1,.51-.34.48.48,0,0,1,.26.16l1.47,2v5.82a1.49,1.49,0,0,0,1.2,1.49,1.44,1.44,0,0,0,1.64-1.22,1.64,1.64,0,0,0,0-.22v-6.49h0a1.19,1.19,0,0,0-.24-.68l-2.12-2.85,1-5.09,1.86,3.3a1.23,1.23,0,0,0,1.7.47l.14-.1A1.33,1.33,0,0,0,545.58,194.11Z"/><path class="cls-11" d="M534.64,195.75l1.33-6.57-3.08,5.1a1.18,1.18,0,0,0,.37,1.6,1.13,1.13,0,0,0,1.38-.13Z"/></g></g><g id="Layer_2-8" data-name="Layer 2"><g id="Layer_1-2-8" data-name="Layer 1-2"><ellipse class="cls-11" cx="546.38" cy="183.28" rx="2.19" ry="2.25"/><path class="cls-11" d="M551.65,194.11,548,187.67a2.6,2.6,0,0,0-1.75-1.43,2.55,2.55,0,0,0-3,2h0l-1.6,7.88h0l-2.18,10.73a1.5,1.5,0,0,0,1,1.75,1.42,1.42,0,0,0,1.76-1l0-.09,1.61-8a.43.43,0,0,1,.51-.34.42.42,0,0,1,.26.16l1.48,2v5.82a1.48,1.48,0,0,0,1.2,1.49,1.43,1.43,0,0,0,1.63-1.22,1.64,1.64,0,0,0,0-.22v-6.49h0a1.19,1.19,0,0,0-.24-.68l-2.11-2.85,1-5.09,1.86,3.3a1.23,1.23,0,0,0,1.7.47.71.71,0,0,0,.14-.1A1.32,1.32,0,0,0,551.65,194.11Z"/><path class="cls-11" d="M540.71,195.75l1.33-6.57-3.07,5.1a1.17,1.17,0,0,0,.37,1.6,1.12,1.12,0,0,0,1.37-.13Z"/></g></g><path class="cls-11" d="M528.47,181a2.25,2.25,0,1,0,2.19,2.25A2.22,2.22,0,0,0,528.47,181Z"/><path class="cls-11" d="M528.36,186.24a2.55,2.55,0,0,0-3,2h0l-1.1,5.4h5.19l.31-1.55.87,1.55h2.87l-3.38-6A2.6,2.6,0,0,0,528.36,186.24Z"/><path class="cls-11" d="M491.73,181a2.25,2.25,0,1,0,2.19,2.25A2.23,2.23,0,0,0,491.73,181Z"/><path class="cls-11" d="M491.62,186.24a2.55,2.55,0,0,0-3,2h0l-1.1,5.4h5.19l.31-1.55.87,1.55h2.87l-3.38-6A2.6,2.6,0,0,0,491.62,186.24Z"/><path class="cls-11" d="M474.07,181a2.25,2.25,0,1,0,2.19,2.25A2.22,2.22,0,0,0,474.07,181Z"/><path class="cls-11" d="M474,186.24a2.55,2.55,0,0,0-3,2h0l-1.1,5.4H475l.31-1.55.87,1.55h2.87l-3.38-6A2.6,2.6,0,0,0,474,186.24Z"/><path class="cls-11" d="M480,181a2.25,2.25,0,1,0,2.2,2.25A2.22,2.22,0,0,0,480,181Z"/><path class="cls-11" d="M479.85,186.24a2.54,2.54,0,0,0-3,2h0l-1.1,5.4h5.18l.32-1.55.87,1.55H485l-3.38-6A2.62,2.62,0,0,0,479.85,186.24Z"/><path class="cls-11" d="M485.84,181a2.25,2.25,0,1,0,2.19,2.25A2.22,2.22,0,0,0,485.84,181Z"/><path class="cls-11" d="M485.74,186.24a2.56,2.56,0,0,0-3,2h0l-1.09,5.4h5.18l.31-1.55.87,1.55h2.87l-3.38-6A2.6,2.6,0,0,0,485.74,186.24Z"/><polygon class="cls-11" points="579.19 195.27 581.08 195.27 582.04 190.56 579.19 195.27"/><path class="cls-12" d="M581.61,209a2.18,2.18,0,1,0,2.12,2.18A2.15,2.15,0,0,0,581.61,209Z"/><path class="cls-12" d="M601.75,193.63c-.3-1.62-2.69-11-2.69-11-1.84-7.78-3.93-15-5.87-15h-123c-4.05,0-5.35,21-5.35,23.09v18.05a3.81,3.81,0,0,0,3.74,3.83h8.73a11.33,11.33,0,0,1-.11-1.43,10.34,10.34,0,1,1,20.68,0,11.32,11.32,0,0,1-.1,1.43h73.62a11.32,11.32,0,0,1-.1-1.43,10.34,10.34,0,1,1,20.68,0,11.33,11.33,0,0,1-.11,1.43H598a3.81,3.81,0,0,0,3.75-3.82S602,195.25,601.75,193.63Zm-107-3.21a1.74,1.74,0,0,1-1.71,1.76h-21.5a1.74,1.74,0,0,1-1.72-1.76L472,174.81a1.75,1.75,0,0,1,1.72-1.76h19.37a1.74,1.74,0,0,1,1.71,1.76Zm27.25.18a1.57,1.57,0,0,1-1.55,1.58h-20.6a1.56,1.56,0,0,1-1.54-1.58v-16a1.57,1.57,0,0,1,1.54-1.59h20.6a1.58,1.58,0,0,1,1.55,1.59Zm27.24,0a1.56,1.56,0,0,1-1.54,1.58h-20.6a1.56,1.56,0,0,1-1.54-1.58v-16a1.57,1.57,0,0,1,1.54-1.59h20.6a1.57,1.57,0,0,1,1.54,1.59Zm19.1,13.9a2.38,2.38,0,0,1-2.16,2.54H555a2.38,2.38,0,0,1-2.16-2.54V175.6a2.38,2.38,0,0,1,2.16-2.55h11.22a2.38,2.38,0,0,1,2.16,2.55Zm26.18-12.32h-21a1.61,1.61,0,0,1-1.58-1.62V174.68a1.61,1.61,0,0,1,1.58-1.63H590.6a1.78,1.78,0,0,1,1.72,1.36l3.95,15.49A1.81,1.81,0,0,1,594.55,192.18Z"/><path class="cls-12" d="M487.51,209a2.18,2.18,0,1,0,2.13,2.18A2.16,2.16,0,0,0,487.51,209Z"/><path class="cls-12" d="M487.51,202.87a8.34,8.34,0,1,0,8.14,8.34A8.25,8.25,0,0,0,487.51,202.87Zm0,12a3.69,3.69,0,1,1,3.6-3.68A3.64,3.64,0,0,1,487.51,214.89Z"/><path class="cls-12" d="M581.61,209a2.18,2.18,0,1,0,2.12,2.18A2.15,2.15,0,0,0,581.61,209Z"/><path class="cls-12" d="M581.61,202.87a8.34,8.34,0,1,0,8.14,8.34A8.26,8.26,0,0,0,581.61,202.87Zm0,12a3.69,3.69,0,1,1,3.59-3.68A3.64,3.64,0,0,1,581.61,214.89Z"/><text class="cls-13" transform="translate(427.79 168.15) rotate(-76.78)">T</text><text class="cls-13" transform="translate(429.66 160.05) rotate(-71.93)">R</text><text class="cls-13" transform="matrix(0.4, -0.92, 0.92, 0.4, 432.51, 151.23)">A</text><text class="cls-13" transform="translate(436.42 142.07) rotate(-60.82)">N</text><text class="cls-13" transform="matrix(0.57, -0.82, 0.82, 0.57, 441.96, 132.28)">S</text><text class="cls-13" transform="matrix(0.61, -0.79, 0.79, 0.61, 446.54, 125.69)">I</text><text class="cls-13" transform="matrix(0.66, -0.75, 0.75, 0.66, 449.22, 122.14)">T</text><text class="cls-13" transform="translate(454.76 115.92) rotate(-45.37)"> </text><text class="cls-13" transform="translate(457.41 113.07) rotate(-41.44)">D</text><text class="cls-13" transform="translate(465.3 106.17) rotate(-36.54)">E</text><text class="cls-13" transform="translate(471.4 101.6) rotate(-31.85)">V</text><text class="cls-13" transform="translate(479.47 96.62) rotate(-27.18)">E</text><text class="cls-13" transform="translate(486.18 93.18) rotate(-23.12)">L</text><text class="cls-13" transform="translate(492.45 90.39) rotate(-18.35)">O</text><text class="cls-13" transform="matrix(0.97, -0.22, 0.22, 0.97, 502.71, 87.03)">P</text><text class="cls-13" transform="matrix(0.99, -0.12, 0.12, 0.99, 511.14, 84.94)">M</text><text class="cls-13" transform="translate(524.71 83.48) rotate(-1.47)">E</text><text class="cls-13" transform="matrix(1, 0.07, -0.07, 1, 532.22, 83.21)">N</text><text class="cls-13" transform="translate(543.42 84.04) rotate(9.25)">T</text><text class="cls-13" transform="translate(551.66 85.44) rotate(12.61)"> </text><text class="cls-13" transform="translate(555.48 86.22) rotate(16.11)">P</text><text class="cls-13" transform="matrix(0.94, 0.35, -0.35, 0.94, 563.86, 88.66)">L</text><text class="cls-13" transform="matrix(0.9, 0.43, -0.43, 0.9, 570.94, 91.25)">A</text><text class="cls-13" transform="matrix(0.86, 0.52, -0.52, 0.86, 579.97, 95.5)">N</text><circle class="cls-14" cx="858.68" cy="188.04" r="104.64"/><g id="Layer_2-9" data-name="Layer 2"><g id="Layer_1-2-9" data-name="Layer 1-2"><path class="cls-15" d="M808.9,218.3A15.45,15.45,0,1,1,824,202.85,15.26,15.26,0,0,1,808.9,218.3Zm0-28a12.54,12.54,0,1,0,12.25,12.54h0a12.41,12.41,0,0,0-12.25-12.53Z"/><path class="cls-15" d="M851.76,218.3a15.45,15.45,0,1,1,15.09-15.45A15.27,15.27,0,0,1,851.76,218.3Zm0-28A12.54,12.54,0,1,0,864,202.86h0a12.41,12.41,0,0,0-12.25-12.53Z"/><path class="cls-15" d="M851.76,204.31a1.42,1.42,0,0,1-1.36-1l-8-27.17a1.46,1.46,0,0,1,.89-1.84,1.4,1.4,0,0,1,1.8.92l0,.08,8,27.18a1.45,1.45,0,0,1-1,1.81,1.4,1.4,0,0,1-.41.06Z"/><path class="cls-15" d="M839.18,177.87A1.46,1.46,0,0,1,839,175l4.6-.73a1.42,1.42,0,0,1,1.64,1.19,1.46,1.46,0,0,1-1.17,1.68h0l-4.6.74Z"/><path class="cls-15" d="M831.68,182.56l-6.82-1.45v-7.6l7.48,4.11a2.58,2.58,0,0,0,3.53-1.1h0a2.71,2.71,0,0,0-1.07-3.61l-9.94-5.44h0l-.36-.2-1.66-.92-.06,0-2.13-1.16a4.48,4.48,0,0,0-6.63,3.91v10.51a8.82,8.82,0,0,0,6.9,8.68l8.5,1.82-2.75,13.55a3.06,3.06,0,0,0,2.33,3.61,3,3,0,0,0,3.52-2.37l2.75-13.54h0l.49-2.4s0,0,0,0l.1-.5h0A5.37,5.37,0,0,0,831.68,182.56Z"/><ellipse class="cls-15" cx="820.63" cy="158" rx="5.01" ry="5.13"/></g></g><g id="Layer_2-10" data-name="Layer 2"><g id="Layer_1-2-10" data-name="Layer 1-2"><ellipse class="cls-16" cx="888.18" cy="158.89" rx="5.1" ry="5.22"/><path class="cls-16" d="M900.43,184.06l-8.44-15a6,6,0,0,0-4.06-3.33,5.93,5.93,0,0,0-7,4.71v0l-3.72,18.31h0l-5.06,24.94a3.5,3.5,0,0,0,2.32,4.08,3.31,3.31,0,0,0,4.1-2.35,1.74,1.74,0,0,0,.05-.22l3.77-18.55a1,1,0,0,1,1.78-.41l3.43,4.62v13.54a3.44,3.44,0,0,0,2.79,3.45,3.32,3.32,0,0,0,3.8-2.83,3,3,0,0,0,0-.52V199.48h0a2.71,2.71,0,0,0-.54-1.58l-4.92-6.63,2.4-11.82,4.32,7.67a2.85,2.85,0,0,0,4,1.07,2.2,2.2,0,0,0,.32-.21A3.09,3.09,0,0,0,900.43,184.06Z"/><path class="cls-16" d="M875,187.87l3.1-15.27L871,184.45a2.74,2.74,0,0,0,.86,3.73,2.6,2.6,0,0,0,3.19-.31Z"/></g></g><g id="Layer_2-11" data-name="Layer 2"><g id="Layer_1-2-11" data-name="Layer 1-2"><ellipse class="cls-17" cx="908.52" cy="183.12" rx="3.04" ry="3.11"/><path class="cls-17" d="M915.82,198.12l-5-8.92a3.59,3.59,0,0,0-2.42-2,3.52,3.52,0,0,0-4.17,2.8v0L902,200.94h0l-3,14.86a2.08,2.08,0,0,0,1.37,2.43,2,2,0,0,0,2.45-1.4l0-.14,2.24-11a.61.61,0,0,1,.71-.48.64.64,0,0,1,.35.23l2,2.76v8.06a2,2,0,0,0,1.66,2.06,2,2,0,0,0,2.26-1.69,1.71,1.71,0,0,0,0-.31v-9h0a1.73,1.73,0,0,0-.33-1l-2.93-3.94,1.43-7,2.58,4.57a1.71,1.71,0,0,0,2.36.64l.18-.13A1.84,1.84,0,0,0,915.82,198.12Z"/><path class="cls-17" d="M900.67,200.38l1.84-9.09-4.26,7.05a1.65,1.65,0,0,0,.52,2.23,1.55,1.55,0,0,0,1.9-.19Z"/></g></g><text class="cls-18" transform="translate(753.19 189.05) rotate(-87.81)">A</text><text class="cls-18" transform="translate(753.57 179.26) rotate(-82.74)">C</text><text class="cls-18" transform="translate(754.69 170.49) rotate(-78.03)">T</text><text class="cls-18" transform="translate(756.47 162.33) rotate(-74.52)">I</text><text class="cls-18" transform="translate(757.58 158) rotate(-70.68)">V</text><text class="cls-18" transform="translate(760.74 149.08) rotate(-66.05)">E</text><text class="cls-18" transform="translate(763.87 142.14) rotate(-62.92)"> </text><text class="cls-18" transform="matrix(0.51, -0.86, 0.86, 0.51, 765.56, 138.68)">T</text><text class="cls-18" transform="matrix(0.58, -0.82, 0.82, 0.58, 769.75, 131.49)">R</text><text class="cls-18" transform="translate(775.07 123.9) rotate(-49.6)">A</text><text class="cls-18" transform="matrix(0.72, -0.69, 0.69, 0.72, 781.49, 116.28)">N</text><text class="cls-18" transform="translate(789.66 108.54) rotate(-38.58)">S</text><text class="cls-18" transform="matrix(0.83, -0.56, 0.56, 0.83, 795.85, 103.57)">P</text><text class="cls-18" transform="translate(803.04 98.64) rotate(-28.64)">O</text><text class="cls-18" transform="translate(812.5 93.51) rotate(-23.14)">R</text><text class="cls-18" transform="matrix(0.95, -0.32, 0.32, 0.95, 820.78, 89.97)">T</text><text class="cls-18" transform="translate(827.67 87.58) rotate(-14.07)">A</text><text class="cls-18" transform="translate(836.43 85.37) rotate(-9.68)">T</text><text class="cls-18" transform="translate(844.68 84.02) rotate(-6.21)">I</text><text class="cls-18" transform="matrix(1, -0.04, 0.04, 1, 849.08, 83.42)">O</text><text class="cls-18" transform="matrix(1, 0.07, -0.07, 1, 859.83, 83.01)">N</text><text class="cls-18" transform="matrix(0.99, 0.14, -0.14, 0.99, 871.09, 83.93)"> </text><text class="cls-18" transform="translate(874.92 84.4) rotate(11.64)">P</text><text class="cls-18" transform="matrix(0.96, 0.28, -0.28, 0.96, 883.48, 86.18)">L</text><text class="cls-18" transform="matrix(0.93, 0.36, -0.36, 0.93, 890.72, 88.21)">A</text><text class="cls-18" transform="translate(900.06 91.73) rotate(26.67)">N</text></g></svg>