<svg xmlns="http://www.w3.org/2000/svg" viewBox="0 0 1066.67 370.94"><defs><style>.cls-1,.cls-14{fill:#bfd84b;}.cls-1,.cls-2,.cls-3{opacity:0.5;}.cls-2,.cls-4{fill:#5ab9e3;}.cls-10,.cls-3{fill:#16b795;}.cls-5{fill:#13606d;}.cls-6{opacity:0.69;}.cls-7,.cls-9{fill:#167085;}.cls-8{fill:#103c44;}.cls-13,.cls-18,.cls-9{font-size:20px;font-family:SegoeUI-Bold, Segoe UI;font-weight:700;}.cls-11,.cls-13{fill:#007556;}.cls-12{fill:#00452e;}.cls-15{fill:#819c3c;}.cls-16{fill:#434d22;}.cls-17,.cls-18{fill:#809b3c;}</style></defs><g id="Layer_3" data-name="Layer 3"><circle class="cls-1" cx="880.28" cy="187.66" r="170.19"/><circle class="cls-2" cx="182.76" cy="188.15" r="170.19"/><circle class="cls-3" cx="531.28" cy="187.36" r="170.19"/><circle class="cls-4" cx="182.76" cy="188.15" r="143.3"/><path class="cls-5" d="M249.45,167.27a3.08,3.08,0,1,0,3,3.08A3,3,0,0,0,249.45,167.27Z"/><path class="cls-5" d="M249.71,174.31a3.49,3.49,0,0,0-4.13,2.77v0l-.24,1.17h7.9l-1.13-2A3.55,3.55,0,0,0,249.71,174.31Z"/><g class="cls-6"><rect class="cls-7" x="67.82" y="149.54" width="161.98" height="43.05" rx="2.22"/><path class="cls-7" d="M86.58,205.71c-8.76-2.38-16.56,5.61-14.24,14.58a11.51,11.51,0,0,0,8,8.17c8.76,2.38,16.56-5.62,14.24-14.58A11.49,11.49,0,0,0,86.58,205.71ZM83.45,222.3a5.22,5.22,0,1,1,5.1-5.22A5.17,5.17,0,0,1,83.45,222.3Z"/><path class="cls-7" d="M83.45,214.05a3,3,0,1,0,3,3A3,3,0,0,0,83.45,214.05Z"/><path class="cls-7" d="M280.25,198.79h-2.56a2.31,2.31,0,0,1-2.27-2.33v-18.7l-.16-1L266.21,151a2.27,2.27,0,0,0-2.1-1.46h-26a2.31,2.31,0,0,0-2.28,2.33v35.46a11.32,11.32,0,0,1-11.18,11.46H64.13a2.3,2.3,0,0,0-2.28,2.32v7.13a2.3,2.3,0,0,0,2.28,2.33h6.06a14.52,14.52,0,0,1,26.52,0h5.48a14.52,14.52,0,0,1,26.52,0H243.27a14.52,14.52,0,0,1,26.52,0h10.46a2.29,2.29,0,0,0,2.27-2.33v-7.13A2.29,2.29,0,0,0,280.25,198.79ZM264,178.27H245.11a3.05,3.05,0,0,1-3-3.09V158.45a3.05,3.05,0,0,1,3-3.09h14.21a3,3,0,0,1,2.83,2l4.68,16.73A3.08,3.08,0,0,1,264,178.27Z"/><path class="cls-7" d="M115.45,214.05a3,3,0,1,0,3,3A3,3,0,0,0,115.45,214.05Z"/><path class="cls-7" d="M118.58,205.71c-8.76-2.38-16.56,5.61-14.24,14.58a11.51,11.51,0,0,0,8,8.17c8.76,2.38,16.57-5.62,14.24-14.58A11.49,11.49,0,0,0,118.58,205.71Zm-3.13,16.59a5.22,5.22,0,1,1,5.1-5.22A5.17,5.17,0,0,1,115.45,222.3Z"/><path class="cls-7" d="M256.53,214.05a3,3,0,1,0,3,3A3,3,0,0,0,256.53,214.05Z"/><path class="cls-7" d="M259.66,205.71c-8.76-2.38-16.56,5.61-14.24,14.58a11.51,11.51,0,0,0,8,8.17c8.76,2.38,16.57-5.62,14.24-14.58A11.49,11.49,0,0,0,259.66,205.71Zm-3.13,16.59a5.22,5.22,0,1,1,5.1-5.22A5.17,5.17,0,0,1,256.53,222.3Z"/></g><g id="Layer_2-2" data-name="Layer 2"><g id="Layer_1-2" data-name="Layer 1-2"><path class="cls-5" d="M142.11,229.35a11.71,11.71,0,1,1,11.44-11.71A11.57,11.57,0,0,1,142.11,229.35Zm0-21.21a9.51,9.51,0,1,0,9.28,9.51h0a9.41,9.41,0,0,0-9.28-9.5Z"/><path class="cls-5" d="M174.59,229.35A11.71,11.71,0,1,1,186,217.64,11.57,11.57,0,0,1,174.59,229.35Zm0-21.21a9.51,9.51,0,1,0,9.29,9.51h0a9.41,9.41,0,0,0-9.29-9.5Z"/><path class="cls-5" d="M174.59,218.75a1.09,1.09,0,0,1-1-.79l-6.05-20.59a1.11,1.11,0,0,1,.68-1.4,1.08,1.08,0,0,1,1.37.7.14.14,0,0,0,0,.06l6,20.6a1.11,1.11,0,0,1-.73,1.37,1.06,1.06,0,0,1-.31.05Z"/><path class="cls-5" d="M165.06,198.71a1.1,1.1,0,0,1-.17-2.19l3.49-.56a1.08,1.08,0,0,1,1.24.91,1.1,1.1,0,0,1-.88,1.27h0l-3.48.56Z"/><path class="cls-5" d="M159.37,202.26l-5.16-1.1V195.4l5.67,3.11a2,2,0,0,0,2.67-.82h0a2.06,2.06,0,0,0-.81-2.74l-7.53-4.13h0l-.28-.15-1.25-.69-.05,0-1.61-.88a3.39,3.39,0,0,0-5,2.95v8a6.69,6.69,0,0,0,5.23,6.58l6.44,1.38-2.08,10.27a2.33,2.33,0,0,0,1.76,2.74,2.28,2.28,0,0,0,2.67-1.8l2.09-10.26h0l.37-1.82v0l.08-.37h0A4.08,4.08,0,0,0,159.37,202.26Z"/><ellipse class="cls-5" cx="151" cy="183.65" rx="3.8" ry="3.89"/></g></g><path class="cls-5" d="M244.47,191.75a3.08,3.08,0,1,0,3,3.08A3,3,0,0,0,244.47,191.75Z"/><path class="cls-5" d="M244.33,198.88a3.5,3.5,0,0,0-4.13,2.78v0l-1.5,7.4h7.11l.43-2.12,1.2,2.12h3.93l-4.63-8.23A3.57,3.57,0,0,0,244.33,198.88Z"/><g id="Layer_1-2-2" data-name="Layer 1-2"><path class="cls-8" d="M189.88,209c1.52,3.24.71,7.77,1.23,9.46a7.89,7.89,0,0,0,1,2.06,5.57,5.57,0,0,0,4.89,2.59h6a11.09,11.09,0,0,1,0-5.72A10.61,10.61,0,0,1,216,209.68a10.94,10.94,0,0,1,7.48,13.38h41.21a11.21,11.21,0,0,1,0-5.75,10.62,10.62,0,0,1,13.08-7.64,10.93,10.93,0,0,1,7.46,13.39h6.61a5.83,5.83,0,0,0,4.15-1.57,11.62,11.62,0,0,0,2-2.83c.2-.38.48-.91.81-1.67s.56-1.35.58-1.42c.44-1.19-1.51-4.27-4.95-6.71-7.49-5.32-19.75-7.37-24.1-8a35.9,35.9,0,0,0-11-9.45c-13.33-7.5-27.69-5.21-29.85-4.84-16.77,2.91-24.87,13.9-26.16,15.71-11.92.83-15.05,2.36-15.3,3.78C187.89,206.93,189,207,189.88,209Zm49.17-19.39a38.24,38.24,0,0,1,23.38,9.3c.93.82.25,2.16-1.09,2.16l-22.28.09V189.56Zm-26,11.67c-1.34,0-2-1.33-1.13-2.15a37.85,37.85,0,0,1,23.39-9.51v11.56l-22.26.1Z"/><path class="cls-8" d="M266.47,220.2h0a8.48,8.48,0,1,0,8.48-8.69A8.58,8.58,0,0,0,266.47,220.2Zm8.48,3.11a3.12,3.12,0,1,1,3-3.11,3.08,3.08,0,0,1-3,3.11Z"/><path class="cls-8" d="M204.72,220.2h0a8.48,8.48,0,1,0,8.48-8.69A8.58,8.58,0,0,0,204.72,220.2Zm8.48,3.11a3.12,3.12,0,1,1,3-3.11,3.08,3.08,0,0,1-3,3.11Z"/><ellipse class="cls-8" cx="274.95" cy="220.2" rx="1.27" ry="1.3"/><ellipse class="cls-8" cx="213.2" cy="220.2" rx="1.27" ry="1.3"/></g><text class="cls-9" transform="translate(39.81 205.48) rotate(-92.93)">M</text><text class="cls-9" transform="translate(39.05 186.7) rotate(-87.08)">E</text><text class="cls-9" transform="translate(39.56 176.15) rotate(-82.63)">T</text><text class="cls-9" transform="translate(40.99 164.79) rotate(-77.79)">R</text><text class="cls-9" transform="translate(43.58 152.51) rotate(-72.37)">O</text><text class="cls-9" transform="translate(48.12 138.38) rotate(-67.05)">P</text><text class="cls-9" transform="translate(52.72 127.32) rotate(-61.73)">O</text><text class="cls-9" transform="translate(59.85 114.25) rotate(-56.81)">L</text><text class="cls-9" transform="matrix(0.59, -0.8, 0.8, 0.59, 65.38, 105.88)">I</text><text class="cls-9" transform="matrix(0.64, -0.77, 0.77, 0.64, 68.96, 100.88)">T</text><text class="cls-9" transform="matrix(0.7, -0.71, 0.71, 0.7, 75.33, 93.09)">A</text><text class="cls-9" transform="translate(84.9 83.24) rotate(-39.74)">N</text><text class="cls-9" transform="matrix(0.81, -0.58, 0.58, 0.81, 96.97, 73.43)"> </text><text class="cls-9" transform="translate(101.24 70.26) rotate(-32.17)">T</text><text class="cls-9" transform="matrix(0.89, -0.46, 0.46, 0.89, 110.89, 64.15)">R</text><text class="cls-9" transform="translate(122.23 58.25) rotate(-22.04)">A</text><text class="cls-9" transform="translate(134.92 53.04) rotate(-16.32)">N</text><text class="cls-9" transform="translate(149.82 48.78) rotate(-11.09)">S</text><text class="cls-9" transform="translate(160.58 46.64) rotate(-6.49)">P</text><text class="cls-9" transform="translate(172.45 45.2) rotate(-1.11)">O</text><text class="cls-9" transform="matrix(1, 0.08, -0.08, 1, 187.3, 44.95)">R</text><text class="cls-9" transform="translate(199.65 45.91) rotate(9.13)">T</text><text class="cls-9" transform="matrix(0.97, 0.24, -0.24, 0.97, 209.6, 47.4)">A</text><text class="cls-9" transform="matrix(0.95, 0.31, -0.31, 0.95, 221.67, 50.3)">T</text><text class="cls-9" transform="translate(232.59 53.95) rotate(21.59)">I</text><text class="cls-9" transform="translate(238.32 56.03) rotate(25.76)">O</text><text class="cls-9" transform="matrix(0.85, 0.53, -0.53, 0.85, 251.69, 62.45)">N</text><text class="cls-9" transform="translate(264.83 70.79) rotate(35.9)"> </text><text class="cls-9" transform="translate(269.2 73.82) rotate(39.37)">P</text><text class="cls-9" transform="translate(278.47 81.46) rotate(43.75)">L</text><text class="cls-9" transform="translate(286.01 88.57) rotate(48.67)">A</text><text class="cls-9" transform="translate(295.13 98.86) rotate(54.54)">N</text><circle class="cls-10" cx="531.28" cy="187.36" r="143.97"/><g id="Layer_2-3" data-name="Layer 2"><g id="Layer_1-2-3" data-name="Layer 1-2"><ellipse class="cls-11" cx="498.95" cy="181.1" rx="3.02" ry="3.09"/><path class="cls-11" d="M506.22,196l-5-8.88a3.55,3.55,0,0,0-2.4-2,3.5,3.5,0,0,0-4.15,2.79h0l-2.2,10.86h0l-3,14.78a2.07,2.07,0,0,0,1.37,2.42,2,2,0,0,0,2.43-1.39.7.7,0,0,0,0-.14l2.23-11a.6.6,0,0,1,.71-.47.59.59,0,0,1,.35.23l2,2.74v8a2,2,0,0,0,1.66,2.05,2,2,0,0,0,2.25-1.68,1.63,1.63,0,0,0,0-.31v-8.94h0a1.7,1.7,0,0,0-.33-.94l-2.91-3.92,1.42-7,2.56,4.55a1.69,1.69,0,0,0,2.35.63,1.22,1.22,0,0,0,.19-.12A1.83,1.83,0,0,0,506.22,196Z"/><path class="cls-11" d="M491.14,198.28l1.84-9.05-4.24,7a1.63,1.63,0,0,0,.51,2.22,1.54,1.54,0,0,0,1.89-.19Z"/></g></g><g id="Layer_2-4" data-name="Layer 2"><g id="Layer_1-2-4" data-name="Layer 1-2"><ellipse class="cls-11" cx="507.32" cy="181.1" rx="3.02" ry="3.09"/><path class="cls-11" d="M514.59,196l-5-8.88a3.55,3.55,0,0,0-2.4-2A3.5,3.5,0,0,0,503,188h0l-2.2,10.86h0l-3,14.78a2.07,2.07,0,0,0,1.37,2.42,2,2,0,0,0,2.43-1.39l0-.14,2.23-11a.6.6,0,0,1,.71-.47.59.59,0,0,1,.35.23l2,2.74v8a2,2,0,0,0,1.66,2.05,2,2,0,0,0,2.25-1.68,1.63,1.63,0,0,0,0-.31v-8.94h0a1.7,1.7,0,0,0-.33-.94l-2.91-3.92,1.42-7,2.56,4.55a1.69,1.69,0,0,0,2.35.63l.18-.12A1.83,1.83,0,0,0,514.59,196Z"/><path class="cls-11" d="M499.51,198.28l1.84-9.05-4.24,7a1.63,1.63,0,0,0,.51,2.22,1.54,1.54,0,0,0,1.89-.19Z"/></g></g><g id="Layer_2-5" data-name="Layer 2"><g id="Layer_1-2-5" data-name="Layer 1-2"><ellipse class="cls-11" cx="515.69" cy="181.1" rx="3.02" ry="3.09"/><path class="cls-11" d="M523,196l-5-8.88a3.45,3.45,0,0,0-6.56.82h0l-2.2,10.86h0l-3,14.78a2.07,2.07,0,0,0,1.37,2.42,2,2,0,0,0,2.43-1.39l0-.14,2.23-11a.6.6,0,0,1,.71-.47.59.59,0,0,1,.35.23l2,2.74v8a2,2,0,0,0,1.66,2.05,2,2,0,0,0,2.25-1.68,1.62,1.62,0,0,0,0-.31v-8.94h0a1.69,1.69,0,0,0-.32-.94L516,200.3l1.43-7,2.56,4.55a1.69,1.69,0,0,0,2.35.63l.18-.12A1.84,1.84,0,0,0,523,196Z"/><path class="cls-11" d="M507.88,198.28l1.84-9.05-4.24,7a1.63,1.63,0,0,0,.51,2.22,1.54,1.54,0,0,0,1.89-.19Z"/></g></g><path class="cls-11" d="M598.32,178.36a3.09,3.09,0,1,0,3,3.09A3.06,3.06,0,0,0,598.32,178.36Z"/><path class="cls-11" d="M598.17,185.52a3.51,3.51,0,0,0-4.14,2.79h0l-1.51,7.43h7.13l.43-2.13,1.2,2.13h4l-4.65-8.26A3.59,3.59,0,0,0,598.17,185.52Z"/><path class="cls-11" d="M491,178a3.1,3.1,0,1,0,3,3.09A3.05,3.05,0,0,0,491,178Z"/><path class="cls-11" d="M490.86,185.18a3.51,3.51,0,0,0-4.15,2.79h0l-1.51,7.44h7.14l.44-2.13,1.2,2.13h3.95l-4.66-8.27A3.54,3.54,0,0,0,490.86,185.18Z"/><g id="Layer_2-6" data-name="Layer 2"><g id="Layer_1-2-6" data-name="Layer 1-2"><ellipse class="cls-11" cx="536.47" cy="181.1" rx="3.02" ry="3.09"/><path class="cls-11" d="M543.73,196l-5-8.88a3.56,3.56,0,0,0-2.41-2,3.51,3.51,0,0,0-4.15,2.79h0L530,198.84h0l-3,14.78a2.08,2.08,0,0,0,1.38,2.42,2,2,0,0,0,2.43-1.39l0-.14,2.23-11a.59.59,0,0,1,.7-.47.61.61,0,0,1,.36.23l2,2.74v8a2,2,0,0,0,1.66,2.05,2,2,0,0,0,2.25-1.68c0-.1,0-.21,0-.31v-8.94h0a1.69,1.69,0,0,0-.32-.94l-2.92-3.92,1.42-7,2.57,4.55a1.69,1.69,0,0,0,2.35.63,1.88,1.88,0,0,0,.18-.12A1.83,1.83,0,0,0,543.73,196Z"/><path class="cls-11" d="M528.66,198.28l1.83-9.05-4.23,7a1.63,1.63,0,0,0,.51,2.22,1.54,1.54,0,0,0,1.89-.19Z"/></g></g><g id="Layer_2-7" data-name="Layer 2"><g id="Layer_1-2-7" data-name="Layer 1-2"><ellipse class="cls-11" cx="544.84" cy="181.1" rx="3.02" ry="3.09"/><path class="cls-11" d="M552.1,196l-5-8.88a3.56,3.56,0,0,0-2.41-2,3.5,3.5,0,0,0-4.15,2.79h0l-2.21,10.86h0l-3,14.78a2.07,2.07,0,0,0,1.38,2.42,2,2,0,0,0,2.43-1.39l0-.14,2.23-11a.59.59,0,0,1,.7-.47.61.61,0,0,1,.36.23l2,2.74v8a2,2,0,0,0,1.65,2.05,2,2,0,0,0,2.26-1.68c0-.1,0-.21,0-.31v-8.94h0a1.69,1.69,0,0,0-.32-.94l-2.92-3.92,1.42-7,2.57,4.55a1.69,1.69,0,0,0,2.35.63,1.88,1.88,0,0,0,.18-.12A1.83,1.83,0,0,0,552.1,196Z"/><path class="cls-11" d="M537,198.28l1.83-9.05-4.24,7a1.65,1.65,0,0,0,.51,2.22,1.55,1.55,0,0,0,1.9-.19Z"/></g></g><g id="Layer_2-8" data-name="Layer 2"><g id="Layer_1-2-8" data-name="Layer 1-2"><ellipse class="cls-11" cx="553.21" cy="181.1" rx="3.02" ry="3.09"/><path class="cls-11" d="M560.47,196l-5-8.88a3.56,3.56,0,0,0-2.41-2,3.5,3.5,0,0,0-4.15,2.79h0l-2.21,10.86h0l-3,14.78a2.07,2.07,0,0,0,1.37,2.42,2,2,0,0,0,2.44-1.39l0-.14,2.23-11a.59.59,0,0,1,.7-.47.56.56,0,0,1,.35.23l2,2.74v8a2,2,0,0,0,1.65,2.05,2,2,0,0,0,2.26-1.68c0-.1,0-.21,0-.31v-8.94h0a1.69,1.69,0,0,0-.32-.94l-2.92-3.92,1.42-7,2.57,4.55a1.69,1.69,0,0,0,2.35.63,1.88,1.88,0,0,0,.18-.12A1.83,1.83,0,0,0,560.47,196Z"/><path class="cls-11" d="M545.39,198.28l1.84-9.05-4.24,7a1.65,1.65,0,0,0,.51,2.22,1.54,1.54,0,0,0,1.89-.19Z"/></g></g><path class="cls-11" d="M528.53,178a3.1,3.1,0,1,0,3,3.09A3.06,3.06,0,0,0,528.53,178Z"/><path class="cls-11" d="M528.38,185.18a3.5,3.5,0,0,0-4.15,2.79h0l-1.51,7.44h7.14l.43-2.13,1.2,2.13h4l-4.66-8.27A3.59,3.59,0,0,0,528.38,185.18Z"/><path class="cls-11" d="M477.89,178a3.1,3.1,0,1,0,3,3.09A3.05,3.05,0,0,0,477.89,178Z"/><path class="cls-11" d="M477.75,185.18A3.5,3.5,0,0,0,473.6,188h0l-1.51,7.44h7.15l.43-2.13,1.2,2.13h3.95l-4.66-8.27A3.55,3.55,0,0,0,477.75,185.18Z"/><path class="cls-11" d="M453.56,178a3.1,3.1,0,1,0,3,3.09A3.06,3.06,0,0,0,453.56,178Z"/><path class="cls-11" d="M453.41,185.18a3.5,3.5,0,0,0-4.15,2.79h0l-1.51,7.44h7.14l.43-2.13,1.2,2.13h4l-4.66-8.27A3.59,3.59,0,0,0,453.41,185.18Z"/><path class="cls-11" d="M461.67,178a3.1,3.1,0,1,0,3,3.09A3.05,3.05,0,0,0,461.67,178Z"/><path class="cls-11" d="M461.52,185.18a3.51,3.51,0,0,0-4.15,2.79h0l-1.51,7.44H463l.43-2.13,1.21,2.13h3.95l-4.66-8.27A3.56,3.56,0,0,0,461.52,185.18Z"/><path class="cls-11" d="M469.78,178a3.1,3.1,0,1,0,3,3.09A3.05,3.05,0,0,0,469.78,178Z"/><path class="cls-11" d="M469.63,185.18a3.51,3.51,0,0,0-4.15,2.79h0L464,195.42h7.14l.44-2.13,1.2,2.13h3.95L472,187.15A3.54,3.54,0,0,0,469.63,185.18Z"/><polygon class="cls-11" points="598.43 197.63 601.03 197.63 602.35 191.14 598.43 197.63"/><path class="cls-12" d="M601.75,216.58a3,3,0,1,0,2.94,3A3,3,0,0,0,601.75,216.58Z"/><path class="cls-12" d="M629.51,195.36c-.4-2.22-3.7-15.17-3.7-15.17-2.54-10.72-5.41-20.61-8.1-20.61H448.17c-5.58,0-7.38,28.93-7.38,31.83v24.87a5.25,5.25,0,0,0,5.16,5.28h12a14.27,14.27,0,0,1-.15-2,14.25,14.25,0,1,1,28.5,0,16,16,0,0,1-.14,2H587.65a14.27,14.27,0,0,1-.15-2,14.25,14.25,0,1,1,28.5,0,16,16,0,0,1-.14,2h8.49a5.24,5.24,0,0,0,5.16-5.27S629.92,197.59,629.51,195.36ZM482.1,190.94a2.4,2.4,0,0,1-2.36,2.42H450.11a2.4,2.4,0,0,1-2.36-2.42l2.93-21.51a2.41,2.41,0,0,1,2.37-2.42h26.69a2.4,2.4,0,0,1,2.36,2.42Zm37.55.24a2.16,2.16,0,0,1-2.13,2.18H489.13a2.16,2.16,0,0,1-2.13-2.18v-22a2.16,2.16,0,0,1,2.13-2.18h28.39a2.16,2.16,0,0,1,2.13,2.18Zm37.55,0a2.16,2.16,0,0,1-2.13,2.18H526.68a2.16,2.16,0,0,1-2.13-2.18v-22a2.16,2.16,0,0,1,2.13-2.18h28.39a2.16,2.16,0,0,1,2.13,2.18Zm26.31,19.16a3.27,3.27,0,0,1-3,3.51H565.07a3.27,3.27,0,0,1-3-3.51V170.52a3.27,3.27,0,0,1,3-3.51h15.47a3.27,3.27,0,0,1,3,3.51Zm36.09-17h-29a2.22,2.22,0,0,1-2.19-2.23V169.24A2.22,2.22,0,0,1,590.6,167h23.56a2.45,2.45,0,0,1,2.36,1.87L622,190.22A2.5,2.5,0,0,1,619.6,193.36Z"/><path class="cls-12" d="M472.08,216.58a3,3,0,1,0,2.93,3A3,3,0,0,0,472.08,216.58Z"/><path class="cls-12" d="M472.08,208.1a11.49,11.49,0,1,0,11.22,11.49A11.37,11.37,0,0,0,472.08,208.1Zm0,16.56a5.08,5.08,0,1,1,5-5.07A5,5,0,0,1,472.08,224.66Z"/><path class="cls-12" d="M601.75,216.58a3,3,0,1,0,2.94,3A3,3,0,0,0,601.75,216.58Z"/><path class="cls-12" d="M601.75,208.1A11.49,11.49,0,1,0,613,219.59,11.37,11.37,0,0,0,601.75,208.1Zm0,16.56a5.08,5.08,0,1,1,5-5.07A5,5,0,0,1,601.75,224.66Z"/><text class="cls-13" transform="matrix(0.23, -0.97, 0.97, 0.23, 389.77, 160.25)">T</text><text class="cls-13" transform="translate(392.35 149.09) rotate(-71.93)">R</text><text class="cls-13" transform="translate(396.27 136.96) rotate(-66.64)">A</text><text class="cls-13" transform="translate(401.66 124.33) rotate(-60.83)">N</text><text class="cls-13" transform="translate(409.3 110.84) rotate(-55.59)">S</text><text class="cls-13" transform="translate(415.58 101.78) rotate(-52.19)">I</text><text class="cls-13" transform="matrix(0.66, -0.75, 0.75, 0.66, 419.27, 96.88)">T</text><text class="cls-13" transform="translate(426.93 88.29) rotate(-45.38)"> </text><text class="cls-13" transform="translate(430.53 84.4) rotate(-41.47)">D</text><text class="cls-13" transform="translate(441.41 74.89) rotate(-36.57)">E</text><text class="cls-13" transform="translate(449.78 68.6) rotate(-31.89)">V</text><text class="cls-13" transform="matrix(0.89, -0.46, 0.46, 0.89, 460.9, 61.73)">E</text><text class="cls-13" transform="matrix(0.92, -0.39, 0.39, 0.92, 470.15, 56.97)">L</text><text class="cls-13" transform="translate(478.79 53.13) rotate(-18.4)">O</text><text class="cls-13" transform="translate(492.91 48.49) rotate(-13.03)">P</text><text class="cls-13" transform="matrix(0.99, -0.12, 0.12, 0.99, 504.52, 45.6)">M</text><text class="cls-13" transform="matrix(1, -0.03, 0.03, 1, 523.23, 43.56)">E</text><text class="cls-13" transform="translate(533.55 43.19) rotate(3.87)">N</text><text class="cls-13" transform="translate(549.01 44.32) rotate(9.2)">T</text><text class="cls-13" transform="translate(560.38 46.25) rotate(12.57)"> </text><text class="cls-13" transform="translate(565.59 47.3) rotate(16.05)">P</text><text class="cls-13" transform="translate(577.14 50.65) rotate(20.45)">L</text><text class="cls-13" transform="translate(586.9 54.21) rotate(25.36)">A</text><text class="cls-13" transform="matrix(0.86, 0.52, -0.52, 0.86, 599.3, 60.02)">N</text><circle class="cls-14" cx="880.28" cy="187.66" r="144.21"/><g id="Layer_2-9" data-name="Layer 2"><g id="Layer_1-2-9" data-name="Layer 1-2"><path class="cls-15" d="M811.68,229.37a21.3,21.3,0,1,1,20.79-21.29A21,21,0,0,1,811.68,229.37Zm0-38.57a17.28,17.28,0,1,0,16.87,17.28h0a17.1,17.1,0,0,0-16.87-17.28Z"/><path class="cls-15" d="M870.74,229.37a21.3,21.3,0,1,1,20.79-21.29A21,21,0,0,1,870.74,229.37Zm0-38.57a17.28,17.28,0,1,0,16.88,17.28h0a17.1,17.1,0,0,0-16.88-17.28Z"/><path class="cls-15" d="M870.74,210.08a2,2,0,0,1-1.87-1.43l-11-37.44a2,2,0,0,1,1.23-2.54,2,2,0,0,1,2.48,1.26.56.56,0,0,1,0,.12l11,37.45a2,2,0,0,1-1.31,2.5,1.87,1.87,0,0,1-.57.08Z"/><path class="cls-15" d="M853.4,173.65a2,2,0,0,1-.3-4l6.34-1a2,2,0,0,1,2.26,1.65,2,2,0,0,1-1.61,2.31h0l-6.34,1Z"/><path class="cls-15" d="M843.07,180.11l-9.39-2V167.64l10.3,5.65a3.55,3.55,0,0,0,4.86-1.5h0a3.74,3.74,0,0,0-1.47-5l-13.69-7.5h0l-.51-.28-2.28-1.25-.09-.05-2.93-1.6a6.17,6.17,0,0,0-9.13,5.38V176a12.15,12.15,0,0,0,9.5,12L840,190.47l-3.79,18.67a4.23,4.23,0,0,0,3.22,5,4.12,4.12,0,0,0,4.85-3.26L848,192.19h0l.67-3.3s0,0,0,0l.14-.68h0A7.39,7.39,0,0,0,843.07,180.11Z"/><ellipse class="cls-15" cx="827.84" cy="146.27" rx="6.9" ry="7.07"/></g></g><g id="Layer_2-10" data-name="Layer 2"><g id="Layer_1-2-10" data-name="Layer 1-2"><ellipse class="cls-16" cx="920.93" cy="147.48" rx="7.03" ry="7.19"/><path class="cls-16" d="M937.82,182.18l-11.63-20.63a8.33,8.33,0,0,0-5.6-4.59,8.16,8.16,0,0,0-9.65,6.49v0l-5.13,25.25h0l-7,34.36a4.82,4.82,0,0,0,3.19,5.63,4.58,4.58,0,0,0,5.66-3.24c0-.1.05-.21.07-.31l5.18-25.56a1.39,1.39,0,0,1,1.64-1.09,1.33,1.33,0,0,1,.82.53l4.73,6.37v18.65a4.74,4.74,0,0,0,3.85,4.76,4.59,4.59,0,0,0,5.23-3.9,4.37,4.37,0,0,0,.06-.72V203.43h0a3.9,3.9,0,0,0-.75-2.19l-6.78-9.13L925,175.82l6,10.57a3.93,3.93,0,0,0,5.88,1.19A4.26,4.26,0,0,0,937.82,182.18Z"/><path class="cls-16" d="M902.77,187.42l4.27-21-9.86,16.33a3.79,3.79,0,0,0,1.19,5.15,3.59,3.59,0,0,0,4.4-.44Z"/></g></g><g id="Layer_2-11" data-name="Layer 2"><g id="Layer_1-2-11" data-name="Layer 1-2"><ellipse class="cls-17" cx="948.96" cy="180.88" rx="4.18" ry="4.28"/><path class="cls-17" d="M959,201.55l-6.93-12.29a5,5,0,0,0-3.34-2.74,4.87,4.87,0,0,0-5.74,3.87v0l-3,15h0l-4.16,20.47a2.88,2.88,0,0,0,1.9,3.35,2.72,2.72,0,0,0,3.37-1.93c0-.06,0-.12.05-.18l3.08-15.22a.84.84,0,0,1,1-.66.9.9,0,0,1,.49.32l2.81,3.79v11.11a2.85,2.85,0,0,0,2.29,2.84,2.75,2.75,0,0,0,3.13-2.33,3,3,0,0,0,0-.42V214.2h0a2.32,2.32,0,0,0-.45-1.3l-4-5.44,2-9.7,3.55,6.29a2.35,2.35,0,0,0,3.25.89l.26-.18A2.53,2.53,0,0,0,959,201.55Z"/><path class="cls-17" d="M938.14,204.67l2.54-12.53-5.87,9.72a2.27,2.27,0,0,0,.71,3.07,2.14,2.14,0,0,0,2.62-.26Z"/></g></g><text class="cls-18" transform="matrix(0.04, -1, 1, 0.04, 734.89, 189.05)">A</text><text class="cls-18" transform="translate(735.42 175.61) rotate(-82.76)">C</text><text class="cls-18" transform="matrix(0.21, -0.98, 0.98, 0.21, 736.96, 163.48)">T</text><text class="cls-18" transform="translate(739.43 152.23) rotate(-74.52)">I</text><text class="cls-18" transform="translate(740.94 146.31) rotate(-70.7)">V</text><text class="cls-18" transform="translate(745.3 133.99) rotate(-66.06)">E</text><text class="cls-18" transform="matrix(0.45, -0.89, 0.89, 0.45, 749.6, 124.46)"> </text><text class="cls-18" transform="matrix(0.51, -0.86, 0.86, 0.51, 751.94, 119.66)">T</text><text class="cls-18" transform="translate(757.7 109.77) rotate(-54.85)">R</text><text class="cls-18" transform="translate(765 99.34) rotate(-49.63)">A</text><text class="cls-18" transform="matrix(0.72, -0.69, 0.69, 0.72, 773.87, 88.81)">N</text><text class="cls-18" transform="translate(785.09 78.15) rotate(-38.62)">S</text><text class="cls-18" transform="translate(793.64 71.28) rotate(-34.03)">P</text><text class="cls-18" transform="translate(803.51 64.52) rotate(-28.68)">O</text><text class="cls-18" transform="matrix(0.92, -0.39, 0.39, 0.92, 816.56, 57.42)">R</text><text class="cls-18" transform="matrix(0.95, -0.32, 0.32, 0.95, 827.94, 52.55)">T</text><text class="cls-18" transform="matrix(0.97, -0.24, 0.24, 0.97, 837.44, 49.25)">A</text><text class="cls-18" transform="matrix(0.99, -0.17, 0.17, 0.99, 849.49, 46.2)">T</text><text class="cls-18" transform="translate(860.84 44.33) rotate(-6.26)">I</text><text class="cls-18" transform="matrix(1, -0.04, 0.04, 1, 866.9, 43.49)">O</text><text class="cls-18" transform="matrix(1, 0.07, -0.07, 1, 881.7, 42.92)">N</text><text class="cls-18" transform="translate(897.21 44.16) rotate(8.1)"> </text><text class="cls-18" transform="translate(902.5 44.81) rotate(11.58)">P</text><text class="cls-18" transform="translate(914.27 47.25) rotate(15.95)">L</text><text class="cls-18" transform="matrix(0.93, 0.36, -0.36, 0.93, 924.27, 50.03)">A</text><text class="cls-18" transform="translate(937.15 54.87) rotate(26.6)">N</text></g></svg>